<svg width="611" height="555" viewBox="0 0 611 555" fill="none" xmlns="http://www.w3.org/2000/svg">
<path d="M89.8817 509.158C208.997 570.281 402.105 570.281 521.22 509.158C640.335 448.034 640.321 348.941 521.22 287.818C402.119 226.695 208.997 226.695 89.8817 287.818C-29.2332 348.941 -29.2189 448.034 89.8817 509.158Z" fill="#F5F5F5"/>
<path d="M522.855 358.507C546.071 358.507 564.892 349.698 564.892 338.831C564.892 327.964 546.071 319.155 522.855 319.155C499.639 319.155 480.819 327.964 480.819 338.831C480.819 349.698 499.639 358.507 522.855 358.507Z" fill="#E6E6E6"/>
<path d="M89.1424 473.618C110.427 473.618 127.682 465.54 127.682 455.575C127.682 445.611 110.427 437.533 89.1424 437.533C67.8578 437.533 50.6031 445.611 50.6031 455.575C50.6031 465.54 67.8578 473.618 89.1424 473.618Z" fill="#E6E6E6"/>
<path d="M375.28 508.306C397.428 508.306 415.383 499.897 415.383 489.523C415.383 479.15 397.428 470.741 375.28 470.741C353.131 470.741 335.177 479.15 335.177 489.523C335.177 499.897 353.131 508.306 375.28 508.306Z" fill="#E6E6E6"/>
<path d="M176.229 418.429C198.377 418.429 216.332 410.02 216.332 399.647C216.332 389.274 198.377 380.865 176.229 380.865C154.081 380.865 136.126 389.274 136.126 399.647C136.126 410.02 154.081 418.429 176.229 418.429Z" fill="#E6E6E6"/>
<path d="M412.227 292.902C413.208 281.325 440.218 237.895 448.477 231.164C456.737 224.433 471.322 207.424 465.039 197.761C458.755 188.097 440.289 192.398 422.946 222.52C409.497 245.883 405.318 297.552 405.318 297.552L412.227 292.902Z" fill="#02897A"/>
<path d="M408.531 291.812H408.417C408.325 291.799 408.237 291.767 408.157 291.72C408.078 291.672 408.009 291.609 407.955 291.535C407.9 291.461 407.862 291.377 407.841 291.288C407.82 291.199 407.818 291.106 407.834 291.016C415.468 242.531 431.688 212.284 457.419 198.543C457.585 198.454 457.78 198.433 457.961 198.486C458.051 198.512 458.135 198.555 458.208 198.612C458.28 198.67 458.341 198.741 458.386 198.822C458.431 198.903 458.459 198.991 458.469 199.083C458.479 199.174 458.47 199.266 458.444 199.355C458.417 199.443 458.374 199.525 458.315 199.597C458.256 199.668 458.184 199.728 458.102 199.772C432.783 213.289 416.804 243.216 409.227 291.24C409.197 291.4 409.111 291.545 408.984 291.65C408.857 291.754 408.697 291.812 408.531 291.812V291.812Z" fill="white"/>
<path d="M414.942 236.736C414.942 236.736 436.621 199.925 454.576 183.07C464.527 173.728 470.64 167.709 470.099 160.643C469.701 155.28 465.167 152.418 455.415 154.778C435.981 159.47 425.561 178.811 418.851 200.47C414.089 215.719 414.942 236.736 414.942 236.736Z" fill="#37474F"/>
<path opacity="0.2" d="M414.942 236.736C414.942 236.736 436.621 199.925 454.576 183.07C464.527 173.728 470.64 167.709 470.1 160.643C469.701 155.28 465.167 152.418 455.415 154.778C435.981 159.47 425.561 178.811 418.851 200.47C414.089 215.719 414.942 236.736 414.942 236.736Z" fill="#00FFE3"/>
<path d="M417.458 230.689H417.359C417.171 230.658 417.003 230.556 416.891 230.404C416.779 230.253 416.733 230.064 416.762 229.879C424.481 182.036 453.823 164.022 462.636 159.637C462.804 159.554 462.999 159.54 463.177 159.598C463.356 159.655 463.504 159.78 463.589 159.944C463.633 160.026 463.659 160.115 463.667 160.206C463.675 160.298 463.664 160.39 463.635 160.478C463.606 160.565 463.559 160.645 463.497 160.715C463.436 160.784 463.36 160.84 463.276 160.88C454.619 165.195 425.789 182.902 418.169 230.103C418.142 230.268 418.055 230.418 417.925 230.526C417.794 230.633 417.629 230.691 417.458 230.689V230.689Z" fill="white"/>
<path d="M536.374 128.077L531.683 119.419L535.45 108.722V102.173L523.907 108.722V115.271L528.868 123.734C528.946 123.866 529.066 123.97 529.21 124.027L536.374 128.077Z" fill="#11B5E4"/>
<path opacity="0.1" d="M536.374 128.077L531.683 119.419L535.45 108.722V102.173L523.907 108.722V115.271L528.868 123.734C528.946 123.866 529.066 123.97 529.21 124.027L536.374 128.077Z" fill="black"/>
<path d="M509.591 87.426L541.378 69.272C542.452 68.7415 543.637 68.4652 544.84 68.4652C546.042 68.4652 547.227 68.7415 548.301 69.272L551.144 70.878C552.156 71.521 552.997 72.3903 553.6 73.4147C554.203 74.4391 554.55 75.5893 554.613 76.771V102.075C554.547 103.256 554.198 104.405 553.596 105.429C552.993 106.453 552.153 107.322 551.144 107.968L519.329 126.122C518.255 126.653 517.07 126.929 515.868 126.929C514.665 126.929 513.48 126.653 512.406 126.122L509.563 124.516C508.555 123.871 507.717 123 507.117 121.976C506.516 120.952 506.171 119.803 506.108 118.623V93.2912C506.182 92.1141 506.535 90.9703 507.14 89.9517C507.745 88.9331 508.584 88.068 509.591 87.426V87.426Z" fill="#11B5E4"/>
<path opacity="0.3" d="M509.591 87.426L541.378 69.272C542.452 68.7415 543.637 68.4652 544.84 68.4652C546.042 68.4652 547.227 68.7415 548.301 69.272L551.144 70.878C552.156 71.521 552.997 72.3903 553.6 73.4147C554.203 74.4391 554.55 75.5893 554.613 76.771V102.075C554.547 103.256 554.198 104.405 553.596 105.429C552.993 106.453 552.153 107.322 551.144 107.968L519.329 126.122C518.255 126.653 517.07 126.929 515.868 126.929C514.665 126.929 513.48 126.653 512.406 126.122L509.563 124.516C508.555 123.871 507.717 123 507.117 121.976C506.516 120.952 506.171 119.803 506.108 118.623V93.2912C506.182 92.1141 506.535 90.9703 507.14 89.9517C507.745 88.9331 508.584 88.068 509.591 87.426V87.426Z" fill="white"/>
<path d="M519.343 126.094C517.424 127.169 515.875 126.304 515.875 124.125V98.8212C515.941 97.6403 516.29 96.4913 516.892 95.4675C517.495 94.4436 518.335 93.5736 519.343 92.9281L551.159 74.7741C553.078 73.6849 554.627 74.5647 554.627 76.7431V102.047C554.561 103.228 554.212 104.377 553.61 105.401C553.007 106.425 552.167 107.295 551.159 107.94" fill="#11B5E4"/>
<path d="M506.137 118.595C506.199 119.775 506.545 120.924 507.145 121.948C507.745 122.972 508.584 123.843 509.591 124.488L512.435 126.094C513.41 126.575 514.478 126.847 515.569 126.893C516.659 126.939 517.747 126.757 518.761 126.359C517.14 126.974 515.917 126.066 515.917 124.125V98.8212C515.964 97.6368 516.316 96.4834 516.941 95.4697L507.189 89.8838C506.569 90.8989 506.221 92.0522 506.18 93.2353L506.137 118.595Z" fill="#11B5E4"/>
<path opacity="0.1" d="M506.137 118.595C506.199 119.775 506.545 120.924 507.145 121.948C507.745 122.972 508.584 123.843 509.591 124.488L512.435 126.094C513.41 126.575 514.478 126.847 515.569 126.893C516.659 126.939 517.747 126.757 518.761 126.359C517.14 126.974 515.917 126.066 515.917 124.125V98.8212C515.964 97.6368 516.316 96.4834 516.941 95.4697L507.189 89.8838C506.569 90.8989 506.221 92.0522 506.18 93.2353L506.137 118.595Z" fill="black"/>
<path d="M531.143 119.377L536.104 127.826C536.177 127.945 536.283 128.041 536.41 128.103C536.536 128.166 536.678 128.192 536.819 128.179C536.96 128.166 537.095 128.114 537.207 128.029C537.319 127.944 537.405 127.83 537.454 127.7L542.7 112.828V106.278L531.143 112.828V119.377Z" fill="#11B5E4"/>
<path d="M535.265 110.733L531.711 109.811C528.328 108.932 524.291 107.018 524.291 102.731C524.461 100.985 525.048 99.3018 526.004 97.8194C526.96 96.3371 528.257 95.0967 529.792 94.1988C530.295 93.8454 530.885 93.631 531.502 93.5782C532.118 93.5254 532.737 93.636 533.295 93.8985C533.852 94.161 534.328 94.5659 534.672 95.0707C535.016 95.5755 535.216 96.1618 535.251 96.7683C535.606 93.9754 537.909 89.5905 540.71 87.9986C543.752 86.2809 546.211 87.3003 546.211 90.2888C546.211 94.5619 542.188 101.069 538.805 105.789L535.265 110.733Z" fill="white"/>
<path d="M65.2881 194.534L97.1033 176.45C98.1753 175.913 99.3615 175.633 100.565 175.633C101.768 175.633 102.954 175.913 104.026 176.45L106.87 178.042C107.875 178.69 108.711 179.561 109.311 180.585C109.911 181.608 110.258 182.756 110.324 183.935V209.239C110.258 210.419 109.911 211.566 109.311 212.59C108.711 213.614 107.875 214.484 106.87 215.132L75.0971 233.216C74.0226 233.754 72.834 234.034 71.6284 234.034C70.4228 234.034 69.2342 233.754 68.1597 233.216L65.3166 231.624C64.2949 230.977 63.4449 230.099 62.8368 229.065C62.2287 228.03 61.88 226.869 61.8195 225.676V200.428C61.8823 199.246 62.2294 198.096 62.8324 197.071C63.4353 196.047 64.2769 195.177 65.2881 194.534V194.534Z" fill="#FF7800"/>
<path opacity="0.3" d="M65.2881 194.534L97.1033 176.45C98.1753 175.913 99.3615 175.633 100.565 175.633C101.768 175.633 102.954 175.913 104.026 176.45L106.87 178.042C107.875 178.69 108.711 179.561 109.311 180.585C109.911 181.608 110.258 182.756 110.324 183.935V209.239C110.258 210.419 109.911 211.566 109.311 212.59C108.711 213.614 107.875 214.484 106.87 215.132L75.0971 233.216C74.0226 233.754 72.834 234.034 71.6284 234.034C70.4228 234.034 69.2342 233.754 68.1597 233.216L65.3166 231.624C64.2949 230.977 63.4449 230.099 62.8368 229.065C62.2287 228.03 61.88 226.869 61.8195 225.676V200.428C61.8823 199.246 62.2294 198.096 62.8324 197.071C63.4353 196.047 64.2769 195.177 65.2881 194.534V194.534Z" fill="white"/>
<path d="M92.0567 235.214L87.3654 226.542L91.1469 215.845V209.295L79.5894 215.901V222.45L84.5649 230.829C84.6401 230.958 84.7544 231.06 84.8919 231.122V231.122L92.0567 235.214Z" fill="#FF7800"/>
<path opacity="0.1" d="M92.0567 235.214L87.3654 226.542L91.1469 215.845V209.295L79.5894 215.901V222.45L84.5649 230.829C84.6401 230.958 84.7544 231.06 84.8919 231.122V231.122L92.0567 235.214Z" fill="black"/>
<path d="M75.0971 233.217C73.178 234.306 71.6284 233.426 71.6284 231.248V205.944C71.6946 204.765 72.0432 203.618 72.646 202.596C73.2487 201.574 74.0886 200.707 75.0971 200.065L106.926 181.911C108.831 180.835 110.381 181.715 110.381 183.88V209.184C110.315 210.363 109.968 211.511 109.368 212.534C108.768 213.558 107.932 214.429 106.926 215.077" fill="#FF7800"/>
<path d="M61.8195 225.676C61.8857 226.857 62.2342 228.005 62.8369 229.029C63.4395 230.053 64.2793 230.923 65.2881 231.569L68.1313 233.161C69.1093 233.641 70.179 233.914 71.2712 233.962C72.3635 234.01 73.4538 233.832 74.4716 233.44C72.8368 234.04 71.6284 233.133 71.6284 231.192V205.944C71.6702 204.76 72.0175 203.607 72.6377 202.592L62.8999 197.076C62.2746 198.09 61.9224 199.243 61.8763 200.428L61.8195 225.676Z" fill="#FF7800"/>
<path opacity="0.1" d="M61.8195 225.676C61.8857 226.857 62.2342 228.005 62.8369 229.029C63.4395 230.053 64.2793 230.923 65.2881 231.569L68.1313 233.161C69.1093 233.641 70.179 233.914 71.2712 233.962C72.3635 234.01 73.4538 233.832 74.4716 233.44C72.8368 234.04 71.6284 233.133 71.6284 231.192V205.944C71.6702 204.76 72.0175 203.607 72.6377 202.592L62.8999 197.076C62.2746 198.09 61.9224 199.243 61.8763 200.428L61.8195 225.676Z" fill="black"/>
<path d="M86.8395 226.5L91.8008 234.878C91.8719 234.998 91.9765 235.096 92.1022 235.159C92.2278 235.222 92.3693 235.249 92.5099 235.235C92.6505 235.222 92.7842 235.17 92.8954 235.084C93.0065 234.999 93.0904 234.884 93.1371 234.753L98.3828 219.88V213.331L86.8395 219.88V226.5Z" fill="#FF7800"/>
<path d="M78.9354 211.39C77.9764 211.996 77.18 212.82 76.6133 213.792C76.0467 214.765 75.7266 215.857 75.6799 216.976C75.6799 219.015 77.1015 219.769 78.9354 218.819C79.8879 218.206 80.6793 217.381 81.2451 216.41C81.8109 215.439 82.1349 214.351 82.1908 213.233C82.205 211.194 80.7834 210.315 78.9354 211.39Z" fill="white"/>
<path d="M90.9478 204.561C89.991 205.171 89.1955 205.996 88.627 206.967C88.0585 207.938 87.7333 209.028 87.6781 210.147C87.6781 212.186 89.0997 213.01 90.9478 211.99C91.9003 211.377 92.6917 210.552 93.2575 209.581C93.8233 208.61 94.1473 207.522 94.2032 206.405C94.2032 204.366 92.739 203.542 90.9478 204.561Z" fill="white"/>
<path d="M102.946 197.746C101.994 198.359 101.202 199.185 100.636 200.156C100.071 201.127 99.7466 202.215 99.6907 203.332C99.6907 205.371 101.112 206.125 102.946 205.176C103.905 204.569 104.702 203.745 105.268 202.773C105.835 201.801 106.155 200.709 106.202 199.59C106.202 197.537 104.752 196.713 102.946 197.746Z" fill="white"/>
<path d="M402.645 11.2215L264.438 89.563C262.647 90.7113 261.157 92.2579 260.087 94.0775C259.018 95.897 258.4 97.9385 258.283 100.036V400.541C258.283 404.395 261.041 405.959 264.438 404.032L402.645 325.691C404.436 324.542 405.927 322.996 406.997 321.176C408.066 319.357 408.684 317.315 408.801 315.217V14.7126C408.801 10.8584 406.043 9.29436 402.645 11.2215Z" fill="#37474F"/>
<path d="M264.438 89.5629L402.645 11.2214C405.688 9.50376 408.204 10.579 408.701 13.5814C408.421 11.6924 407.736 9.88328 406.692 8.27303C405.648 6.66278 404.269 5.28796 402.645 4.2391L397.627 1.44617C395.72 0.495464 393.611 0 391.472 0C389.333 0 387.224 0.495464 385.316 1.44617L247.109 79.7458C245.291 80.8599 243.794 82.4127 242.759 84.2564L260.088 94.0316C261.129 92.2033 262.626 90.6654 264.438 89.5629V89.5629Z" fill="#455A64"/>
<path d="M240.954 390.71C241.068 392.808 241.685 394.851 242.755 396.671C243.825 398.49 245.317 400.037 247.109 401.183L252.128 403.976C253.862 404.835 255.763 405.323 257.704 405.407C259.644 405.492 261.581 405.17 263.387 404.465C260.543 405.54 258.283 403.934 258.283 400.485V99.9945C258.354 97.8877 258.976 95.8342 260.088 94.0316L242.759 84.2564C241.65 86.0603 241.028 88.1129 240.954 90.2193V390.71Z" fill="#263238"/>
<path d="M267.751 126.988L399.333 52.403C401.366 51.2439 403.029 52.1796 403.029 54.4977V281.995C402.956 283.254 402.584 284.478 401.942 285.569C401.3 286.661 400.407 287.589 399.333 288.279L267.751 362.85C265.718 364.01 264.055 363.074 264.055 360.756V133.272C264.123 132.013 264.493 130.787 265.136 129.695C265.778 128.603 266.674 127.675 267.751 126.988Z" fill="#FAFAFA"/>
<path d="M332.149 62.0526C331.52 62.4581 330.997 63.0029 330.621 63.6432C330.246 64.2836 330.029 65.0015 329.988 65.7393C329.988 67.1357 330.955 67.6524 332.149 66.9681C332.779 66.5643 333.303 66.0199 333.679 65.3792C334.054 64.7385 334.27 64.0198 334.309 63.2815C334.309 61.9269 333.343 61.3823 332.149 62.0526Z" fill="#263238"/>
<path d="M311.692 83.67C310.443 84.4855 309.407 85.5775 308.666 86.8581C307.926 88.1387 307.501 89.5722 307.427 91.0433C307.427 93.7524 309.361 94.8556 311.692 93.501C312.955 92.6941 314.005 91.6057 314.759 90.3244C315.512 89.0432 315.947 87.6053 316.028 86.1277C316.028 83.4186 314.08 82.3154 311.692 83.67Z" fill="#263238"/>
<path d="M322.283 82.7481C322.283 84.5635 323.705 85.2478 325.368 84.2842L353.8 68.1272C354.677 67.5845 355.412 66.8466 355.945 65.9733C356.479 65.1 356.796 64.1157 356.87 63.0999C356.87 61.2985 355.449 60.6142 353.8 61.5778L325.368 77.7348C324.489 78.2738 323.752 79.0085 323.216 79.8795C322.68 80.7505 322.36 81.7332 322.283 82.7481Z" fill="#263238"/>
<path d="M250.535 135.981C251.546 136.624 252.388 137.494 252.991 138.518C253.594 139.543 253.941 140.693 254.004 141.874C254.004 144.039 252.454 144.919 250.535 143.843C249.529 143.193 248.692 142.32 248.092 141.294C247.492 140.268 247.145 139.118 247.081 137.936C247.109 135.772 248.63 134.906 250.535 135.981Z" fill="#37474F"/>
<path d="M250.535 162.193C251.544 162.838 252.384 163.708 252.987 164.732C253.589 165.756 253.938 166.905 254.004 168.086C254.004 170.264 252.454 171.144 250.535 170.055C249.544 169.411 248.719 168.55 248.125 167.539C247.53 166.529 247.183 165.396 247.109 164.232C247.109 161.997 248.63 161.117 250.535 162.193Z" fill="#37474F"/>
<path d="M249.469 136.498C250.478 137.143 251.318 138.013 251.92 139.037C252.523 140.061 252.872 141.21 252.938 142.391C252.938 144.569 251.388 145.449 249.469 144.36C248.462 143.713 247.623 142.842 247.021 141.819C246.418 140.795 246.069 139.647 246 138.467C246 136.302 247.564 135.423 249.469 136.498Z" fill="#455A64"/>
<path d="M249.469 162.723C250.478 163.369 251.318 164.239 251.92 165.263C252.523 166.287 252.872 167.436 252.938 168.617C252.938 170.795 251.388 171.675 249.469 170.586C248.462 169.938 247.623 169.068 247.021 168.045C246.418 167.021 246.069 165.873 246 164.692C246 162.514 247.564 161.634 249.469 162.723Z" fill="#455A64"/>
<path d="M333.542 335.606C331.057 337.199 328.99 339.346 327.508 341.872C326.026 344.398 325.171 347.232 325.012 350.143C325.012 355.505 328.836 357.67 333.542 355.002C336.027 353.405 338.094 351.256 339.576 348.728C341.058 346.2 341.913 343.364 342.071 340.451C342.085 335.089 338.261 332.924 333.542 335.606Z" fill="#263238"/>
<path d="M295.031 359.611C293.823 359.611 293.695 358.214 293.695 357.712V130.228C293.769 129.092 294.109 127.988 294.689 127.002C295.268 126.017 296.071 125.176 297.036 124.544L428.618 49.9593C429.011 49.7286 429.454 49.5944 429.911 49.5683C431.12 49.5683 431.248 50.881 431.248 51.4535V278.951C431.174 280.085 430.835 281.188 430.255 282.171C429.675 283.155 428.872 283.993 427.907 284.621L296.325 359.206C295.936 359.448 295.491 359.587 295.031 359.611V359.611Z" fill="white" stroke="#141414" stroke-miterlimit="10"/>
<path d="M429.911 50.2665C430.451 50.2665 430.537 51.0067 430.537 51.4535V278.951C430.465 279.964 430.159 280.947 429.642 281.825C429.124 282.704 428.409 283.455 427.551 284.02L295.969 358.605C295.686 358.78 295.364 358.886 295.031 358.913C294.491 358.913 294.405 358.158 294.405 357.712V130.228C294.477 129.215 294.783 128.232 295.301 127.354C295.818 126.475 296.533 125.724 297.391 125.159L428.973 50.5738C429.253 50.3926 429.577 50.2867 429.911 50.2665V50.2665ZM429.911 48.8701C429.328 48.8893 428.759 49.0577 428.262 49.3588L296.68 123.944C295.603 124.631 294.707 125.559 294.065 126.651C293.423 127.743 293.052 128.968 292.984 130.228V357.712C292.984 359.359 293.823 360.309 295.031 360.309C295.616 360.284 296.184 360.111 296.68 359.806L428.262 285.235C429.338 284.547 430.234 283.62 430.876 282.528C431.518 281.436 431.889 280.21 431.958 278.951V51.4535C431.958 49.8197 431.12 48.8701 429.911 48.8701V48.8701Z" fill="#37474F" stroke="#141414" stroke-miterlimit="10"/>
<path d="M431.916 51.4536C431.916 49.1354 430.267 48.1998 428.219 49.3589L296.637 123.944C295.561 124.631 294.665 125.559 294.022 126.651C293.38 127.743 293.009 128.968 292.941 130.228V148.871L431.916 70.0963V51.4536Z" fill="#37474F"/>
<path opacity="0.1" d="M431.916 51.4536C431.916 49.1354 430.267 48.1998 428.219 49.3589L296.637 123.944C295.561 124.631 294.665 125.559 294.022 126.651C293.38 127.743 293.009 128.968 292.941 130.228V148.871L431.916 70.0963V51.4536Z" fill="black"/>
<path d="M307.484 128.245C307.25 128.158 306.998 128.129 306.75 128.161C306.502 128.192 306.266 128.284 306.063 128.426C305.332 128.903 304.723 129.539 304.284 130.285C303.845 131.032 303.588 131.867 303.532 132.727C303.496 132.975 303.529 133.227 303.627 133.458C303.724 133.689 303.883 133.89 304.087 134.04C304.32 134.134 304.574 134.166 304.824 134.132C305.074 134.097 305.31 133.998 305.508 133.845C306.235 133.368 306.839 132.733 307.276 131.99C307.712 131.246 307.968 130.414 308.024 129.558C308.062 129.311 308.031 129.06 307.936 128.829C307.841 128.598 307.685 128.396 307.484 128.245Z" fill="white"/>
<path d="M310.483 123.483L310.171 123.665V123.036C310.171 122.156 309.545 121.793 308.749 122.24L302.778 125.62C302.368 125.881 302.025 126.233 301.778 126.648C301.532 127.062 301.387 127.528 301.357 128.008V128.65L301.03 128.831C300.484 129.18 300.03 129.65 299.704 130.203C299.378 130.756 299.189 131.377 299.153 132.015V137.699C299.153 138.872 299.992 139.361 301.03 138.774L310.455 133.426C311.002 133.075 311.457 132.603 311.783 132.047C312.109 131.492 312.297 130.868 312.331 130.228V124.516C312.36 123.371 311.521 122.897 310.483 123.483ZM306.048 134.766C305.589 135.042 305.065 135.196 304.527 135.213C304.179 135.217 303.835 135.13 303.532 134.962C303.164 134.718 302.869 134.383 302.677 133.99C302.484 133.598 302.402 133.162 302.437 132.728C302.487 131.681 302.791 130.662 303.326 129.755C303.86 128.849 304.609 128.082 305.508 127.519C305.869 127.263 306.294 127.11 306.738 127.075C307.182 127.041 307.627 127.126 308.024 127.323C308.392 127.566 308.687 127.901 308.877 128.294C309.068 128.688 309.146 129.124 309.104 129.558C309.054 130.602 308.751 131.62 308.219 132.526C307.687 133.432 306.943 134.2 306.048 134.766V134.766ZM310.313 127.184C309.829 127.449 309.446 127.184 309.446 126.681C309.46 126.384 309.546 126.095 309.697 125.838C309.848 125.581 310.059 125.362 310.313 125.201C310.796 124.921 311.194 125.201 311.194 125.689C311.183 125.984 311.103 126.272 310.96 126.531C310.817 126.791 310.615 127.014 310.37 127.184H310.313Z" fill="white"/>
<path d="M424.353 57.1929L415.155 62.4017C414.622 62.7429 414.178 63.2026 413.86 63.7436C413.541 64.2846 413.357 64.8918 413.322 65.5158V71.1017C413.322 72.2328 414.146 72.7076 415.155 72.1351L420.628 69.0349L422.775 71.1436C422.825 71.1895 422.888 71.2201 422.956 71.2316C423.024 71.2431 423.094 71.2351 423.157 71.2085C423.22 71.1819 423.274 71.1379 423.312 71.0817C423.35 71.0256 423.371 70.9597 423.372 70.8922V67.4709L424.353 66.9123C424.894 66.5758 425.346 66.1182 425.672 65.5769C425.999 65.0355 426.19 64.426 426.23 63.7982V58.2123C426.23 57.0812 425.362 56.6204 424.353 57.1929Z" fill="white"/>
<path d="M310.697 145.547C315.502 142.866 319.397 145.044 319.397 150.435C319.225 153.383 318.347 156.25 316.835 158.802C315.324 161.355 313.221 163.521 310.697 165.126C305.878 167.918 301.983 165.67 301.983 160.238C302.144 157.286 303.019 154.413 304.534 151.859C306.049 149.304 308.162 147.141 310.697 145.547V145.547Z" fill="#37474F"/>
<path d="M328.012 138.97L356.884 122.603C358.59 121.64 359.969 122.324 359.969 124.125C359.894 125.143 359.576 126.128 359.04 127.002C358.504 127.875 357.765 128.612 356.884 129.152L328.012 145.519C326.32 146.483 324.941 145.798 324.941 143.997C325.016 142.981 325.333 141.997 325.866 141.123C326.4 140.25 327.135 139.512 328.012 138.97Z" fill="#37474F"/>
<g opacity="0.7">
<path opacity="0.7" d="M328.012 138.97L356.884 122.603C358.59 121.64 359.969 122.324 359.969 124.125C359.894 125.143 359.576 126.128 359.04 127.002C358.504 127.875 357.765 128.612 356.884 129.152L328.012 145.519C326.32 146.483 324.941 145.798 324.941 143.997C325.016 142.981 325.333 141.997 325.866 141.123C326.4 140.25 327.135 139.512 328.012 138.97Z" fill="white"/>
</g>
<path d="M327.045 150.574L346.848 139.403C348.014 138.746 348.952 139.207 348.952 140.45C348.901 141.147 348.684 141.822 348.319 142.421C347.953 143.02 347.45 143.527 346.848 143.899L327.045 155.071C325.88 155.727 324.941 155.252 324.941 154.01C324.993 153.315 325.211 152.642 325.576 152.045C325.942 151.449 326.445 150.945 327.045 150.574Z" fill="#37474F"/>
<g opacity="0.7">
<path opacity="0.7" d="M327.045 150.574L346.848 139.403C348.014 138.746 348.952 139.207 348.952 140.45C348.901 141.147 348.684 141.822 348.319 142.421C347.953 143.02 347.45 143.527 346.848 143.899L327.045 155.071C325.88 155.727 324.941 155.252 324.941 154.01C324.993 153.315 325.211 152.642 325.576 152.045C325.942 151.449 326.445 150.945 327.045 150.574Z" fill="white"/>
</g>
<path d="M310.697 292.371C315.502 289.69 319.397 291.882 319.397 297.259C319.225 300.207 318.347 303.073 316.835 305.626C315.324 308.178 313.221 310.345 310.697 311.949C305.878 314.742 301.983 312.494 301.983 307.062C302.148 304.11 303.024 301.239 304.539 298.685C306.054 296.131 308.164 293.967 310.697 292.371Z" fill="#37474F"/>
<path d="M328.012 285.808L356.884 269.427C358.59 268.464 359.969 269.148 359.969 270.949C359.894 271.967 359.576 272.952 359.04 273.826C358.504 274.699 357.765 275.436 356.884 275.977L328.012 292.357C326.32 293.321 324.941 292.636 324.941 290.821C325.018 289.808 325.336 288.826 325.869 287.955C326.403 287.085 327.137 286.349 328.012 285.808Z" fill="#37474F"/>
<g opacity="0.7">
<path opacity="0.7" d="M328.012 285.808L356.884 269.427C358.59 268.464 359.969 269.148 359.969 270.949C359.894 271.967 359.576 272.952 359.04 273.826C358.504 274.699 357.765 275.436 356.884 275.977L328.012 292.357C326.32 293.321 324.941 292.636 324.941 290.821C325.018 289.808 325.336 288.826 325.869 287.955C326.403 287.085 327.137 286.349 328.012 285.808Z" fill="white"/>
</g>
<path d="M327.045 297.398L346.848 286.227C348.014 285.57 348.952 286.031 348.952 287.274C348.901 287.971 348.684 288.646 348.319 289.245C347.953 289.844 347.45 290.351 346.848 290.723L327.045 301.895C325.88 302.551 324.941 302.077 324.941 300.848C324.991 300.151 325.208 299.475 325.573 298.876C325.939 298.276 326.443 297.77 327.045 297.398V297.398Z" fill="#37474F"/>
<g opacity="0.7">
<path opacity="0.7" d="M327.045 297.398L346.848 286.227C348.014 285.57 348.952 286.031 348.952 287.274C348.901 287.971 348.684 288.646 348.319 289.245C347.953 289.844 347.45 290.351 346.848 290.723L327.045 301.895C325.88 302.551 324.941 302.077 324.941 300.848C324.991 300.151 325.208 299.475 325.573 298.876C325.939 298.276 326.443 297.77 327.045 297.398V297.398Z" fill="white"/>
</g>
<path d="M307.996 173.253L417.33 111.25C419.036 110.286 420.415 111.068 420.415 112.996V220.258C420.357 221.31 420.047 222.333 419.512 223.245C418.976 224.158 418.228 224.933 417.33 225.509L307.996 287.874C306.29 288.838 304.925 288.056 304.925 286.129V178.49C304.981 177.441 305.288 176.42 305.821 175.51C306.355 174.599 307.1 173.826 307.996 173.253V173.253Z" fill="#F5F5F5"/>
<path d="M348.127 197.817C347.848 197.415 347.462 197.096 347.012 196.894C346.561 196.692 346.063 196.614 345.571 196.671C345.079 196.727 344.612 196.914 344.221 197.212C343.83 197.51 343.529 197.907 343.351 198.361L304.968 269.972V286.129C304.968 288.056 306.389 288.838 308.038 287.874L417.373 225.83C418.271 225.254 419.018 224.479 419.554 223.566C420.09 222.654 420.4 221.631 420.458 220.579V184.829L399.688 148.591C398.537 146.566 396.93 146.692 396.092 148.857L368.442 220.844L348.127 197.817Z" fill="#37474F"/>
<g opacity="0.3">
<path opacity="0.3" d="M348.127 197.817C347.848 197.415 347.462 197.096 347.012 196.894C346.561 196.692 346.063 196.614 345.571 196.671C345.079 196.727 344.612 196.914 344.221 197.212C343.83 197.51 343.529 197.907 343.351 198.361L304.968 269.972V286.129C304.968 288.056 306.389 288.838 308.038 287.874L417.373 225.83C418.271 225.254 419.018 224.479 419.554 223.566C420.09 222.654 420.4 221.631 420.458 220.579V184.829L399.688 148.591C398.537 146.566 396.93 146.692 396.092 148.857L368.442 220.844L348.127 197.817Z" fill="#00564C"/>
</g>
<path d="M316.454 202.271C326.093 196.839 333.926 183.601 333.926 172.708C333.926 167.122 331.879 163.296 328.623 161.537L307.996 173.225C307.1 173.798 306.355 174.571 305.821 175.482C305.288 176.392 304.981 177.413 304.925 178.462V203.793C307.996 205.148 312.019 204.729 316.454 202.271Z" fill="#37474F"/>
<g opacity="0.6">
<path opacity="0.6" d="M316.454 202.271C326.093 196.839 333.926 183.601 333.926 172.708C333.926 167.122 331.879 163.296 328.623 161.537L307.996 173.225C307.1 173.798 306.355 174.571 305.821 175.482C305.288 176.392 304.981 177.413 304.925 178.462V203.793C307.996 205.148 312.019 204.729 316.454 202.271Z" fill="white"/>
</g>
<path d="M307.996 320.636L417.33 258.619C419.036 257.655 420.415 258.339 420.415 260.155C420.338 261.17 420.018 262.152 419.482 263.023C418.946 263.894 418.209 264.629 417.33 265.168L307.996 327.185C306.29 328.149 304.925 327.464 304.925 325.649C304.998 324.634 305.314 323.651 305.847 322.78C306.381 321.908 307.117 321.174 307.996 320.636V320.636Z" fill="#37474F"/>
<g opacity="0.6">
<path opacity="0.6" d="M307.996 320.636L417.33 258.619C419.036 257.655 420.415 258.339 420.415 260.155C420.338 261.17 420.018 262.152 419.482 263.023C418.946 263.894 418.209 264.629 417.33 265.168L307.996 327.185C306.29 328.149 304.925 327.464 304.925 325.649C304.998 324.634 305.314 323.651 305.847 322.78C306.381 321.908 307.117 321.174 307.996 320.636V320.636Z" fill="white"/>
</g>
<path d="M307.996 333.734L417.33 271.759C419.036 270.796 420.415 271.48 420.415 273.295C420.338 274.31 420.018 275.293 419.482 276.164C418.946 277.035 418.209 277.77 417.33 278.309L307.996 340.326C306.29 341.289 304.925 340.605 304.925 338.789C304.992 337.768 305.306 336.777 305.839 335.898C306.373 335.019 307.113 334.277 307.996 333.734V333.734Z" fill="#37474F"/>
<g opacity="0.6">
<path opacity="0.6" d="M307.996 333.734L417.33 271.759C419.036 270.796 420.415 271.48 420.415 273.295C420.338 274.31 420.018 275.293 419.482 276.164C418.946 277.035 418.209 277.77 417.33 278.309L307.996 340.326C306.29 341.289 304.925 340.605 304.925 338.789C304.992 337.768 305.306 336.777 305.839 335.898C306.373 335.019 307.113 334.277 307.996 333.734V333.734Z" fill="white"/>
</g>
<path d="M324.856 114.867L402.858 70.6688C405.247 69.2723 407.123 70.4174 407.123 73.1126C407.049 74.5761 406.624 76.0017 405.883 77.2734C405.142 78.545 404.106 79.6266 402.858 80.4301L324.87 124.502C322.482 125.899 320.605 124.782 320.605 122.128C320.686 120.676 321.113 119.262 321.851 118.001C322.589 116.74 323.618 115.666 324.856 114.867V114.867Z" fill="#FAFAFA"/>
<path d="M554.03 198.696L559.56 208.653L550.959 215.901L543.07 203.626L554.03 198.696Z" fill="#F28F8F"/>
<path d="M533.275 176.506C538.762 176.506 544.804 178.517 546.88 182.749L555.409 200.121C555.409 200.121 550.561 207.103 542.871 206.6L533.275 176.506Z" fill="#E0E0E0"/>
<path d="M553.604 210.203C555.21 207.271 555.608 207.131 556.56 206.489C557.513 205.846 563.37 204.994 565.801 204.785C568.644 204.548 569.682 205.064 568.886 207.48C566.696 213.573 564.015 219.485 560.868 225.159C560.1 226.151 559.958 227.072 556.731 227.394C553.731 227.673 549.964 227.84 548.855 227.896C547.747 227.952 546.211 228.245 547.192 225.034C548.461 221.405 549.933 217.848 551.599 214.379C552.836 211.711 553.604 210.203 553.604 210.203Z" fill="#37474F"/>
<path d="M489.547 309.003C488.125 308.304 487.315 310.008 486.078 311.377C485.016 312.383 484.187 313.602 483.647 314.952C483.349 316.557 484.841 319.141 486.49 320.537C488.139 321.934 490.044 322.953 490.641 326.025C490.795 327.435 491.352 328.774 492.248 329.886C493.143 330.998 494.341 331.838 495.702 332.31C499.256 333.818 504.019 333.329 505.653 332.31C507.558 331.095 505.81 329.754 503.137 325.984C499.64 321.068 496.911 317.605 496.911 312.955L489.547 309.003Z" fill="#263238"/>
<path d="M492.348 304.967L489.505 309.156C488.891 310.012 488.648 311.072 488.83 312.104C489.011 313.135 489.601 314.054 490.471 314.658L490.557 314.728C491.431 315.238 492.459 315.432 493.464 315.276C494.468 315.121 495.386 314.626 496.058 313.876L500.55 309.072L492.348 304.967Z" fill="#FFA8A7"/>
<path d="M545.145 224.196C545.33 229.474 543.809 250.798 540.099 260.224C536.388 269.65 534.242 275.516 533.076 277.485C531.91 279.454 498.275 311.6 498.275 311.6C498.275 311.6 492.589 311.195 491.665 305.763C491.665 305.763 505.44 282.749 508.426 278.029C511.411 273.309 521.987 266.075 521.987 266.075L521.021 224.796L545.145 224.196Z" fill="#37474F"/>
<path d="M495.319 219.057C495.319 218.149 498.162 207.717 499.583 202.9L510.004 206.419L507.558 214.015L498.389 223.33C497.417 223.14 496.557 222.59 495.986 221.795C495.414 221 495.176 220.02 495.319 219.057V219.057Z" fill="#FFA8A7"/>
<path d="M537.735 336.536L544.847 334.948L542.492 324.776L535.381 326.364L537.735 336.536Z" fill="#FFA8A7"/>
<path d="M545.145 224.196H511.027C510.282 229.089 509.854 234.024 509.748 238.97C509.477 253.493 523.238 279.873 523.238 279.873C522.578 285.742 522.876 291.677 524.12 297.454C527.134 309.017 535.35 328.609 535.35 328.609C535.35 328.609 540.511 329.321 543.055 326.403C543.055 326.403 538.506 286.645 537.284 276.465C535.962 265.433 532.55 245.31 532.55 245.31C534.802 243.106 536.843 240.703 538.648 238.132C541.813 233.993 544.025 229.229 545.131 224.168" fill="#37474F"/>
<path d="M522.016 176.8C515.477 178.35 506.563 180.361 503.99 187.315C501.417 194.269 497.707 206.6 497.707 206.6C499.128 209.044 507.018 211.069 509.762 209.658L511.041 205.469V224.154C516.159 229.628 533.986 232.169 545.159 224.154V189.242C545.159 183.656 542.003 176.953 533.289 176.464L522.016 176.8Z" fill="#11B5E4"/>
<path d="M511.041 205.511L514.325 195.359L511.041 210.049V205.511Z" fill="#E0E0E0"/>
<path d="M519.557 148.27C518.97 148.206 518.376 148.273 517.82 148.466C517.263 148.66 516.759 148.975 516.344 149.387C514.922 150.783 515.249 153.339 516.344 159.246L520.609 159.721L519.557 148.27Z" fill="#263238"/>
<path d="M544.449 146.566C545.345 146.575 546.234 146.409 547.065 146.077C548.372 145.337 548.714 146.804 547.989 148.074C547.515 148.985 546.811 149.761 545.945 150.328C545.079 150.896 544.079 151.235 543.041 151.314C543.041 151.133 541.819 148.033 541.819 148.033L544.449 146.566Z" fill="#263238"/>
<path d="M521.561 159.721C520.935 160.098 520.025 158.897 519.244 158.101C518.938 157.754 518.547 157.49 518.108 157.333C517.669 157.176 517.196 157.132 516.735 157.204C516.273 157.277 515.839 157.464 515.472 157.748C515.105 158.032 514.818 158.404 514.638 158.827C513.344 161.508 516.287 165.083 518.021 166.256C518.502 166.669 519.104 166.922 519.74 166.977C520.376 167.032 521.014 166.887 521.561 166.564L522.016 176.828C522.782 178.472 523.95 179.904 525.416 180.998C526.881 182.092 528.599 182.813 530.417 183.098C536.559 183.908 535.293 178.908 533.26 176.506V172.778C534.797 173.097 536.376 173.172 537.937 173.001C538.734 172.792 540.638 170.53 541.875 167.988C544.498 162.899 545.081 157.029 543.51 151.538C541.307 142.349 531.256 142.07 525.271 145.77C519.286 149.471 521.561 159.721 521.561 159.721Z" fill="#FFA8A7"/>
<path d="M521.561 160.768C521.248 160.768 520.04 158.799 519.244 158.101C518.149 157.124 519.556 148.326 519.556 148.326C519.255 147.38 519.194 146.376 519.38 145.402C519.566 144.428 519.993 143.514 520.623 142.74C522.783 140.506 526.963 140.883 530.019 140.785C533.78 140.799 537.504 140.063 540.966 138.62C545.316 136.763 545.643 136.554 546.169 138.425C546.589 139.971 546.641 141.592 546.32 143.162C546 144.731 545.316 146.207 544.321 147.474L542.899 149.736C542.899 149.736 541.577 150.826 537.525 151.314C533.474 151.803 526.565 149.653 525.698 149.541C524.518 149.387 524.276 150.504 523.636 153.563C523.096 156.202 522.641 160.754 521.561 160.768Z" fill="#263238"/>
<path d="M519.571 148.968L515.732 146.943C515.855 146.697 516.026 146.477 516.236 146.296C516.445 146.115 516.689 145.976 516.953 145.888C517.217 145.8 517.497 145.764 517.775 145.782C518.054 145.8 518.326 145.872 518.576 145.994C519.103 146.265 519.501 146.728 519.687 147.283C519.873 147.838 519.831 148.443 519.571 148.968V148.968Z" fill="#263238"/>
<path d="M533.261 172.778C530.645 172.285 528.081 171.561 525.598 170.613C524.436 170.01 523.481 169.082 522.855 167.946C523.155 169.086 523.687 170.155 524.418 171.088C525.84 172.918 533.261 174.258 533.261 174.258V172.778Z" fill="#F28F8F"/>
<path d="M533.446 159.526C533.449 159.827 533.332 160.118 533.119 160.335C532.906 160.552 532.615 160.677 532.308 160.685C532.155 160.681 532.004 160.648 531.864 160.587C531.724 160.526 531.598 160.439 531.492 160.33C531.387 160.221 531.304 160.092 531.249 159.952C531.194 159.812 531.167 159.662 531.171 159.512C531.167 159.21 531.284 158.92 531.497 158.703C531.71 158.486 532.002 158.36 532.308 158.353C532.461 158.356 532.612 158.389 532.752 158.45C532.892 158.511 533.019 158.599 533.124 158.708C533.23 158.817 533.313 158.945 533.368 159.085C533.423 159.226 533.449 159.375 533.446 159.526V159.526Z" fill="#263238"/>
<path d="M532.237 155.294L529.806 156.691C529.714 156.529 529.655 156.35 529.634 156.166C529.613 155.982 529.629 155.795 529.682 155.617C529.735 155.439 529.823 155.273 529.942 155.129C530.061 154.985 530.208 154.865 530.375 154.777C530.694 154.617 531.064 154.581 531.409 154.676C531.755 154.772 532.051 154.993 532.237 155.294Z" fill="#263238"/>
<path d="M532.749 167.025L535.351 167.988C535.222 168.323 534.968 168.597 534.64 168.753C534.311 168.909 533.935 168.935 533.588 168.826C533.412 168.762 533.251 168.665 533.113 168.54C532.976 168.415 532.865 168.264 532.787 168.097C532.709 167.929 532.666 167.748 532.659 167.564C532.653 167.38 532.683 167.197 532.749 167.025V167.025Z" fill="#F28F8F"/>
<path d="M543.596 156.23L541.378 154.554C541.601 154.271 541.926 154.083 542.285 154.029C542.645 153.974 543.012 154.057 543.312 154.261C543.463 154.371 543.59 154.509 543.687 154.668C543.783 154.827 543.846 155.004 543.873 155.187C543.899 155.37 543.889 155.557 543.841 155.736C543.793 155.915 543.71 156.083 543.596 156.23V156.23Z" fill="#263238"/>
<path d="M542.913 159.204C542.917 159.506 542.8 159.796 542.587 160.013C542.374 160.23 542.083 160.356 541.776 160.363C541.623 160.36 541.472 160.326 541.332 160.266C541.192 160.205 541.066 160.117 540.96 160.008C540.854 159.899 540.772 159.771 540.717 159.631C540.661 159.49 540.635 159.341 540.639 159.19C540.635 158.889 540.752 158.598 540.965 158.381C541.178 158.164 541.469 158.039 541.776 158.031C542.084 158.042 542.375 158.171 542.588 158.39C542.8 158.609 542.917 158.902 542.913 159.204V159.204Z" fill="#263238"/>
<path d="M537.554 159.065L536.488 165.712L540.226 165.279L537.554 159.065Z" fill="#F28F8F"/>
<path d="M544.036 331.555L543.809 330.55C544.548 330.69 547.747 335.898 550.917 338.161C554.385 340.632 557.385 342.099 558.935 343.216C561.01 344.71 558.01 347.768 552.907 348.048C550.377 348.173 545.799 347.419 544.377 346.093C542.956 344.766 541.932 342.574 540.795 341.624C539.658 340.674 537.397 339.836 536.616 338.622C536.197 337.415 536.047 336.134 536.175 334.865C536.175 333.552 536.274 332.072 536.729 332.142L536.9 332.896C538.218 333.557 539.685 333.879 541.165 333.832C542.401 333.776 544.633 333.51 544.036 331.555Z" fill="#263238"/>
<path d="M536.402 269.706C536.402 269.706 533.374 248.578 532.564 245.31C534.996 244.005 537.259 242.416 539.302 240.576C537.893 242.557 536.354 244.446 534.696 246.232L536.402 269.706Z" fill="#263238"/>
<path d="M518.135 268.966C518.135 268.966 521.774 277.862 523.253 279.831C523.253 279.831 522.883 286.617 522.926 287.986L521.021 289.62C520.971 286.55 521.257 283.483 521.874 280.473C520.203 276.783 518.949 272.925 518.135 268.966Z" fill="#263238"/>
<path d="M507.601 214.016C507.601 214.016 536.275 217.032 539.644 216.013C543.013 214.993 547.534 211.711 549.908 210.315C552.282 208.918 554.087 208.835 554.087 209.407C554.087 209.98 552.012 213.094 551.542 214.393C551.073 215.691 553.774 215.691 557.343 214.881C560.911 214.071 562.332 212.088 563.256 213.234C564.18 214.379 561.28 220.216 555.366 222.408C549.453 224.601 545.06 223.134 540.17 223.344C535.279 223.553 505.156 225.439 498.375 223.344C498.196 222.276 498.32 221.181 498.734 220.178C499.148 219.175 499.835 218.304 500.721 217.66C502.77 216.045 505.101 214.81 507.601 214.016V214.016Z" fill="#FFA8A7"/>
<path d="M348.639 348.564C348.71 347.657 350.459 337.881 351.653 332.407L363.353 335.926L361.476 343.593L351.752 352.837C350.773 352.657 349.902 352.111 349.322 351.315C348.742 350.519 348.497 349.533 348.639 348.564V348.564Z" fill="#FFA8A7"/>
<path d="M374.285 265.81H379.971C384.167 265.81 388.192 267.448 391.159 270.362C394.126 273.277 395.793 277.23 395.793 281.353V320.956H358.462V281.353C358.462 277.23 360.129 273.277 363.097 270.362C366.064 267.448 370.088 265.81 374.285 265.81Z" fill="#263238"/>
<path d="M405.233 328.022L410.763 337.979L402.148 345.213L394.272 332.938L405.233 328.022Z" fill="#F28F8F"/>
<path d="M384.477 305.819C389.965 305.819 396.006 307.829 398.082 312.061L406.611 329.433C406.611 329.433 401.764 336.415 394.073 335.926L384.477 305.819Z" fill="#455A64"/>
<path d="M388.913 478.1C390.801 480.581 392.924 482.882 395.253 484.971C395.627 485.266 395.924 485.644 396.12 486.074C396.362 486.8 396.674 488.546 393.391 489.258C391.726 489.616 390.002 489.619 388.337 489.264C386.671 488.91 385.103 488.208 383.738 487.205C381.336 485.306 381.62 481.968 379.402 479.776C377.753 478.17 375.521 477.541 374.284 475.586C373.417 474.19 373.886 472.528 374.668 470.475C375.45 468.423 376.005 466.551 376.758 466.817L376.502 467.85C377.284 469.484 382.188 470.517 384.591 469.735C385.884 472.595 387.326 475.387 388.913 478.1Z" fill="#263238"/>
<path d="M390.846 480.502C390.178 479.734 389.524 478.952 388.913 478.1C387.655 476.044 386.53 473.912 385.543 471.718C384.903 470.411 384.791 468.914 385.231 467.529L386.851 462.153L378.322 460.225L376.474 467.752C376.076 469.47 377.341 471.174 379.658 473.659C381.975 476.145 384.648 481.619 386.766 483.169C388.884 484.719 390.618 484.873 391.699 484.342C392.779 483.812 393.049 483.323 390.846 480.502Z" fill="#FFA8A7"/>
<path d="M365.968 482.834V481.647C366.451 483.044 368.641 488.992 371.967 491.981C374.626 494.341 378.236 497.092 379.146 499.731C380.056 502.371 374.128 503.404 371.654 502.971C368.354 502.428 365.327 500.833 363.04 498.433C361.618 496.715 360.708 494.676 359.685 493.321C358.661 491.967 356.33 490.529 355.79 488.909C355.619 487.449 355.779 485.971 356.259 484.58C356.657 483.183 357.069 481.521 357.581 481.647V482.625C358.798 483.556 360.303 484.049 361.846 484.021C363.011 484.021 365.982 483.756 365.968 482.834Z" fill="#263238"/>
<path d="M374.37 494.062L371.968 491.967C369.739 489.648 368 486.919 366.85 483.937C366.268 482.561 365.968 481.085 365.968 479.594V474.888H357.581V482.541V482.75C357.979 484.468 361.846 489.02 364.021 491.995C365.804 494.551 368.524 496.332 371.612 496.966C374.811 497.385 376.474 496.408 374.37 494.062Z" fill="#FFA8A7"/>
<path d="M359.244 354.695C352.748 368.659 359.486 417.829 359.486 417.829C359.287 420.105 356.643 424.56 355.676 434.586C354.51 446.373 357.496 475.95 357.496 475.95C358.78 476.69 360.23 477.108 361.718 477.166C363.206 477.225 364.685 476.922 366.025 476.285C366.025 476.285 374.029 431.724 375.536 420.007L380.341 382.415L387.449 419.1C385.547 421.974 383.973 425.047 382.757 428.26C381.066 433.441 377.64 462.963 377.64 462.963C378.796 464.001 380.178 464.766 381.681 465.199C383.184 465.632 384.768 465.722 386.311 465.462C386.311 465.462 402.731 424.965 403.47 416.698C403.911 411.74 396.547 352.712 396.547 352.712L359.244 354.695Z" fill="#37474F"/>
<path d="M380.284 382.359L381.421 374.287C381.421 374.287 390.363 372.472 394.415 368.701C391.617 371.923 387.959 374.312 383.852 375.6L382.658 383.392L384.08 401.448L380.284 382.359Z" fill="#263238"/>
<path d="M370.787 306.196C368.394 306.768 366.161 307.86 364.254 309.392C362.348 310.924 360.815 312.858 359.77 315.049C358.235 318.381 358.092 322.172 359.372 325.606L365.101 342.127C365.101 342.127 362.386 348.592 359.216 354.695C373.815 362.696 392.026 358.493 396.419 352.656C396.603 351.413 396.348 345.827 396.703 339.487C397.073 332.714 398.025 325.062 396.945 320.886C394.926 313.108 391.159 305.819 383.667 305.819L370.787 306.196Z" fill="#F03E3D"/>
<path d="M368.556 306.196C363.58 306.88 356.273 307.871 353.743 319.49C351.212 331.109 350.459 335.368 350.459 335.368C352.081 336.932 354.014 338.15 356.137 338.948C358.26 339.746 360.528 340.105 362.798 340.004L365.371 331.067L368.556 306.196Z" fill="#455A64"/>
<path d="M371.384 315.999C370.526 315.999 369.675 315.833 368.882 315.51C368.088 315.187 367.367 314.714 366.76 314.118C366.153 313.521 365.671 312.813 365.343 312.033C365.014 311.254 364.845 310.419 364.845 309.575V290.877H371.384V315.999Z" fill="#263238"/>
<path d="M389.666 273.225C391.642 274.37 394.073 279.244 393.831 289.452C393.632 298.11 390.775 300.261 389.339 300.875C387.903 301.49 385.145 301.112 382.458 300.666V305.86C382.458 305.86 386.169 310.05 385.941 312.494C385.714 314.937 380.568 315.44 377.085 313.108C374.842 311.51 372.914 309.522 371.399 307.243V294.675C371.115 295.015 370.766 295.297 370.371 295.504C369.976 295.711 369.544 295.839 369.098 295.881C368.653 295.922 368.203 295.877 367.776 295.746C367.348 295.616 366.951 295.404 366.608 295.122C363.637 293.181 363.523 288.391 365.257 286.743C366.992 285.095 370.702 285.57 371.399 287.944C374.912 287.792 378.332 286.785 381.35 285.011C383.587 283.834 385.508 282.152 386.954 280.103C388.4 278.054 389.329 275.696 389.666 273.225V273.225Z" fill="#FFA8A7"/>
<path d="M383.994 287.288C383.996 287.501 383.935 287.711 383.817 287.89C383.699 288.07 383.53 288.211 383.331 288.297C383.132 288.383 382.912 288.41 382.697 288.374C382.483 288.338 382.284 288.24 382.126 288.094C381.967 287.948 381.856 287.759 381.806 287.551C381.756 287.344 381.769 287.126 381.844 286.925C381.919 286.725 382.052 286.55 382.227 286.424C382.402 286.297 382.611 286.223 382.828 286.212C382.977 286.207 383.125 286.23 383.264 286.281C383.404 286.333 383.531 286.41 383.64 286.511C383.748 286.611 383.835 286.731 383.896 286.864C383.957 286.998 383.99 287.142 383.994 287.288V287.288Z" fill="#263238"/>
<path d="M384.293 294.619L386.866 295.429C386.82 295.599 386.74 295.758 386.63 295.897C386.519 296.036 386.382 296.151 386.225 296.236C386.068 296.321 385.895 296.374 385.717 296.391C385.539 296.408 385.359 296.39 385.188 296.337C384.843 296.219 384.557 295.974 384.39 295.654C384.223 295.334 384.188 294.963 384.293 294.619V294.619Z" fill="#F28F8F"/>
<path d="M393.078 283.936L390.846 282.414C390.94 282.265 391.063 282.137 391.209 282.037C391.355 281.936 391.52 281.866 391.695 281.831C391.869 281.796 392.049 281.796 392.223 281.831C392.398 281.867 392.563 281.937 392.709 282.037C393.008 282.245 393.213 282.559 393.282 282.913C393.351 283.267 393.278 283.634 393.078 283.936V283.936Z" fill="#263238"/>
<path d="M392.566 286.492C392.586 286.786 392.486 287.076 392.289 287.298C392.092 287.52 391.813 287.657 391.514 287.679C391.216 287.683 390.928 287.573 390.71 287.372C390.493 287.172 390.363 286.896 390.348 286.603C390.341 286.46 390.362 286.317 390.411 286.182C390.46 286.047 390.535 285.923 390.633 285.817C390.731 285.71 390.849 285.624 390.98 285.563C391.112 285.501 391.255 285.466 391.4 285.458C391.546 285.451 391.692 285.472 391.829 285.52C391.966 285.568 392.093 285.642 392.201 285.738C392.309 285.834 392.397 285.95 392.46 286.079C392.523 286.208 392.559 286.349 392.566 286.492V286.492Z" fill="#263238"/>
<path d="M387.334 285.877L387.519 292.427L391.031 291.351L387.334 285.877Z" fill="#F28F8F"/>
<path d="M382.459 300.666C379.616 300.303 373.787 298.655 372.877 296.393C373.24 297.541 373.955 298.55 374.924 299.283C376.659 300.749 382.459 302.411 382.459 302.411V300.666Z" fill="#F28F8F"/>
<path d="M404.792 339.515C406.398 336.583 406.796 336.457 407.763 335.815C408.73 335.172 414.572 334.306 417.003 334.097C419.847 333.86 420.884 334.376 420.088 336.806C417.872 342.893 415.172 348.8 412.014 354.471C411.246 355.477 411.09 356.398 407.877 356.706C404.664 357.013 401.096 357.153 399.987 357.222C398.878 357.292 397.343 357.557 398.338 354.346C399.605 350.719 401.072 347.162 402.731 343.691C404.024 341.051 404.792 339.515 404.792 339.515Z" fill="#37474F"/>
<path d="M361.476 343.649C361.476 343.649 387.477 346.344 390.846 345.325C394.215 344.305 398.736 340.996 401.167 339.627C403.598 338.259 405.346 338.147 405.346 338.705C405.346 339.264 403.271 342.406 402.787 343.691C402.304 344.975 405.033 344.989 408.587 344.179C412.141 343.37 413.577 341.387 414.515 342.532C415.454 343.677 412.539 349.514 406.626 351.706C400.712 353.899 396.319 352.447 391.429 352.642C386.538 352.838 358.533 354.988 351.752 352.893C351.573 351.826 351.697 350.73 352.111 349.727C352.525 348.725 353.212 347.853 354.098 347.21C356.291 345.551 358.799 344.34 361.476 343.649Z" fill="#FFA8A7"/>
<path d="M363.353 337.085C364.468 334.118 365.417 331.092 366.196 328.022C366.196 328.022 365.727 334.767 363.793 338.384L363.353 337.085Z" fill="#37474F"/>
<path d="M152.972 254.038L148.352 263.841L156.952 271.075L164.387 258.744L152.972 254.038Z" fill="#F28F8F"/>
<path d="M174.182 231.611C168.695 231.611 162.653 233.636 160.577 237.853C158.502 242.071 152.048 255.239 152.048 255.239C152.048 255.239 156.895 262.221 164.586 261.719L174.182 231.611Z" fill="#37474F"/>
<path d="M197.979 387.163H190.388V398.013H197.979V387.163Z" fill="#FFA8A7"/>
<path d="M171.289 373.738L163.703 373.994L164.082 384.838L171.669 384.582L171.289 373.738Z" fill="#FFA8A7"/>
<path d="M197.467 281.227C197.467 288.349 198.406 334.376 198.406 334.376C198.59 336.415 200.538 340.2 200.112 348.062C199.543 358.745 198.605 388.42 198.605 388.42C198.605 388.42 195.051 391.883 190.075 388.42C190.075 388.42 183.195 348.09 181.844 337.505C180.65 328.274 178.646 303.18 178.646 303.18L171.609 332.715C171.609 332.715 172.845 339.697 173.13 344.557C173.414 349.416 171.836 377.779 171.836 377.779C170.606 378.533 169.197 378.958 167.748 379.011C166.299 379.065 164.861 378.746 163.577 378.086C163.577 378.086 157.492 336.723 156.71 332.296C155.929 327.869 162.041 281.227 162.041 281.227H197.467Z" fill="#37474F"/>
<path d="M186.052 231.946H186.166C189.422 232.75 192.311 234.602 194.372 237.206C196.433 239.81 197.548 243.017 197.539 246.316V281.227C192.222 286.911 173.684 289.606 161.999 281.227V244.919C161.999 239.124 165.283 232.142 174.338 231.625L186.052 231.946Z" fill="#02897A"/>
<path d="M188.611 202.243C189.221 202.176 189.838 202.246 190.417 202.447C190.995 202.647 191.52 202.974 191.952 203.402C193.373 204.799 193.089 207.522 191.952 213.652L187.516 214.155L188.611 202.243Z" fill="#263238"/>
<path d="M162.724 200.54C161.772 200.542 160.829 200.357 159.952 199.995C158.53 199.227 158.232 200.749 158.971 202.062C159.466 203.01 160.201 203.817 161.104 204.406C162.008 204.995 163.05 205.347 164.131 205.427C164.131 205.246 165.396 202.034 165.396 202.034L162.724 200.54Z" fill="#263238"/>
<path d="M186.521 214.155C187.189 214.546 188.128 213.303 188.938 212.465C189.256 212.102 189.663 211.825 190.121 211.661C190.579 211.497 191.072 211.452 191.553 211.529C192.034 211.606 192.487 211.803 192.868 212.102C193.249 212.4 193.545 212.79 193.729 213.234C195.15 216.026 192.009 219.741 190.217 220.956C189.715 221.386 189.086 221.649 188.422 221.707C187.758 221.764 187.093 221.614 186.521 221.277L186.052 231.946C185.256 233.658 184.041 235.149 182.516 236.287C180.99 237.425 179.201 238.174 177.309 238.468C170.926 239.319 172.249 234.153 174.338 231.611V227.729C172.747 228.068 171.11 228.153 169.491 227.98C168.652 227.757 166.647 225.397 165.382 222.757C163.961 219.797 161.558 214.546 163.691 205.651C165.979 196.085 176.485 195.792 182.655 199.646C188.824 203.5 186.521 214.155 186.521 214.155Z" fill="#FFA8A7"/>
<path d="M186.521 215.244C186.863 215.244 188.114 213.206 188.938 212.451C190.075 211.432 188.611 202.229 188.611 202.229C188.611 202.229 189.763 198.752 187.516 196.434C185.27 194.116 180.906 194.507 177.722 194.395C173.814 194.419 169.943 193.654 166.349 192.147C161.828 190.22 161.487 189.996 160.933 191.937C160.494 193.546 160.439 195.232 160.772 196.864C161.105 198.496 161.817 200.031 162.852 201.35L165.098 202.16C165.098 202.16 166.306 203.221 170.528 203.724C174.422 204.007 178.334 203.937 182.214 203.514C183.437 203.347 183.636 204.506 184.361 207.704C184.929 210.496 185.413 215.23 186.521 215.244Z" fill="#263238"/>
<path d="M188.597 202.97L192.592 200.861C192.465 200.597 192.285 200.362 192.062 200.168C191.84 199.975 191.58 199.828 191.298 199.737C191.016 199.645 190.718 199.611 190.423 199.636C190.127 199.662 189.839 199.746 189.578 199.883C189.043 200.176 188.642 200.66 188.46 201.234C188.277 201.808 188.326 202.43 188.597 202.97V202.97Z" fill="#263238"/>
<path d="M174.353 227.729C177.077 227.226 179.747 226.473 182.328 225.48C183.542 224.855 184.534 223.881 185.171 222.688C184.86 223.873 184.309 224.985 183.55 225.955C182.043 227.854 174.338 229.251 174.338 229.251L174.353 227.729Z" fill="#F28F8F"/>
<path d="M175.774 212.703C175.78 212.934 175.855 213.159 175.99 213.348C176.125 213.538 176.314 213.684 176.534 213.768C176.753 213.852 176.993 213.87 177.223 213.821C177.453 213.771 177.663 213.656 177.827 213.489C177.991 213.323 178.1 213.113 178.143 212.885C178.185 212.657 178.158 212.423 178.064 212.21C177.971 211.998 177.816 211.817 177.618 211.691C177.421 211.565 177.189 211.499 176.954 211.502C176.636 211.509 176.334 211.639 176.113 211.864C175.892 212.089 175.77 212.39 175.774 212.703Z" fill="#263238"/>
<path d="M177.025 208.318L179.57 209.715C179.746 209.371 179.783 208.975 179.672 208.607C179.561 208.238 179.311 207.925 178.973 207.732C178.806 207.642 178.623 207.586 178.434 207.567C178.245 207.548 178.054 207.566 177.873 207.621C177.691 207.676 177.523 207.766 177.377 207.885C177.232 208.005 177.112 208.152 177.025 208.318Z" fill="#263238"/>
<path d="M175.859 220.593L173.158 221.598C173.217 221.776 173.312 221.94 173.437 222.081C173.562 222.222 173.715 222.337 173.886 222.419C174.057 222.501 174.243 222.549 174.433 222.559C174.623 222.569 174.813 222.541 174.992 222.478C175.359 222.337 175.655 222.061 175.817 221.709C175.979 221.357 175.994 220.956 175.859 220.593V220.593Z" fill="#F28F8F"/>
<path d="M165.212 209.282L167.501 207.522C167.391 207.369 167.25 207.24 167.088 207.141C166.926 207.042 166.746 206.977 166.558 206.948C166.369 206.92 166.177 206.928 165.992 206.974C165.807 207.02 165.634 207.102 165.482 207.215C165.175 207.459 164.975 207.81 164.925 208.195C164.875 208.58 164.977 208.969 165.212 209.282V209.282Z" fill="#263238"/>
<path d="M165.923 212.382C165.919 212.694 166.04 212.995 166.261 213.22C166.482 213.445 166.784 213.575 167.102 213.583C167.424 213.575 167.73 213.444 167.954 213.216C168.177 212.989 168.3 212.684 168.297 212.368C168.315 212.204 168.298 212.038 168.246 211.881C168.195 211.724 168.111 211.58 167.999 211.457C167.887 211.334 167.75 211.236 167.596 211.169C167.443 211.102 167.277 211.067 167.11 211.067C166.942 211.067 166.776 211.102 166.623 211.169C166.469 211.236 166.332 211.334 166.22 211.457C166.108 211.58 166.024 211.724 165.973 211.881C165.921 212.038 165.904 212.204 165.923 212.368V212.382Z" fill="#263238"/>
<path d="M171.964 211.278L171.566 218.275L167.856 217.032L171.964 211.278Z" fill="#F28F8F"/>
<path d="M190.388 394.327V393.251C189.663 393.559 187.971 399.884 184.972 402.58C182.569 404.716 179.285 407.202 178.475 409.562C177.665 411.922 183.024 413.416 185.256 413.025C187.858 412.578 192.364 410.777 193.487 409.115C194.61 407.453 195.15 404.996 196.06 403.767C196.97 402.538 199.102 401.183 199.6 399.773C199.746 398.453 199.596 397.119 199.159 395.863C198.804 394.55 198.434 393.07 197.979 393.223C197.979 393.377 197.979 394.033 197.979 394.033C196.9 394.87 195.559 395.314 194.184 395.29C193.089 395.374 190.374 395.164 190.388 394.327Z" fill="#263238"/>
<path d="M164.018 382.527C163.62 382.527 163.293 383.085 162.425 384.007C161.131 385.301 159.621 386.368 157.962 387.163C155.118 388.559 149.603 390.71 147.101 391.813C145.551 392.511 145.679 394.355 147.229 395.416C148.778 396.477 152.744 397.231 157.421 396.198C159.966 395.639 163.293 393.335 165.382 393.405C167.472 393.475 171.41 393.503 172.959 392.456C174.509 391.408 173.898 389.16 173.457 387.233C173.016 385.306 172.291 381.926 171.58 382.066V382.722C170.671 384.119 166.022 384.635 164.018 383.644V382.527Z" fill="#263238"/>
<path d="M153.867 265.322C152.261 262.375 151.863 262.249 150.896 261.607C149.93 260.965 144.087 260.099 141.656 259.903C138.813 259.666 137.775 260.183 138.571 262.599C140.773 268.687 143.453 274.598 146.589 280.278C147.357 281.269 147.513 282.191 150.726 282.498C153.939 282.805 157.507 282.945 158.616 283.015C159.724 283.085 161.26 283.35 160.265 280.138C158.995 276.512 157.528 272.955 155.872 269.483C154.706 266.844 153.867 265.322 153.867 265.322Z" fill="#37474F"/>
<path d="M212.138 274.175C212.067 273.253 209.295 262.836 207.873 258.018L197.467 261.537L199.913 269.12L209.068 278.434C210.038 278.247 210.898 277.701 211.47 276.908C212.042 276.115 212.281 275.136 212.138 274.175V274.175Z" fill="#FFA8A7"/>
<path d="M199.87 269.12C199.87 269.12 171.182 272.136 167.813 271.117C164.444 270.097 159.923 266.788 157.492 265.419C155.062 264.051 153.313 263.939 153.313 264.512C153.313 265.084 155.389 268.198 155.872 269.483C156.355 270.768 153.626 270.782 150.072 269.972C146.518 269.162 145.082 267.179 144.144 268.324C143.206 269.469 146.12 275.306 152.034 277.499C157.947 279.691 162.34 278.239 167.23 278.434C172.121 278.63 202.244 280.529 209.025 278.434C209.205 277.369 209.081 276.275 208.667 275.274C208.253 274.274 207.565 273.405 206.679 272.765C204.649 271.161 202.343 269.926 199.87 269.12V269.12Z" fill="#FFA8A7"/>
<path d="M188.455 232.742C192.961 234.208 201.903 234.948 204.789 244.528C207.675 254.108 209.125 260.322 209.125 260.322C207.419 262.556 200.595 265.14 197.468 264.176L188.455 232.742Z" fill="#455A64"/>
<path d="M197.468 264.176L194.383 253.424L197.468 268.561V264.176Z" fill="#37474F"/>
<path d="M132.757 286.771C132.615 286.953 131.406 288.922 131.406 288.922L125.848 296.742L120.432 304.716C120.261 304.959 120.016 305.142 119.733 305.24C119.449 305.338 119.142 305.345 118.854 305.26L118.484 305.134C116.608 304.45 113.793 303.291 110.054 301.601C107.055 300.205 107.211 299.8 107.211 299.297C107.172 298.898 107.172 298.496 107.211 298.096V298.096C107.822 296.951 109.713 294.088 112.258 290.472C116.778 284.02 118.953 281.157 120.304 279.3C120.496 279.029 120.781 278.834 121.106 278.75C121.432 278.665 121.777 278.697 122.081 278.839C124.512 279.635 129.445 281.716 132.032 282.749H132.146C133.539 283.489 132.771 286.715 132.757 286.771Z" fill="#37474F"/>
<path d="M132.899 286.52L131.477 288.922L126.047 296.895L120.361 304.674C120.19 304.917 119.945 305.1 119.662 305.198C119.378 305.296 119.07 305.303 118.783 305.218L118.413 305.093C116.536 304.408 113.722 303.249 109.983 301.56C106.983 300.163 107.14 299.758 107.14 299.255C107.101 298.856 107.101 298.454 107.14 298.054V298.054C109.983 299.283 118.982 303.473 119.28 303.319C119.991 302.984 126.09 293.376 129.331 288.475C130.951 286.031 131.676 284.998 132.174 284.16C132.265 284.06 132.333 283.941 132.373 283.813C132.413 283.684 132.424 283.549 132.405 283.416C132.386 283.283 132.338 283.156 132.264 283.043C132.189 282.93 132.091 282.835 131.975 282.763H131.861C132.18 282.929 132.456 283.165 132.666 283.453C132.875 283.742 133.014 284.075 133.07 284.425C133.225 284.76 133.29 285.128 133.26 285.494C133.231 285.861 133.106 286.213 132.899 286.52V286.52Z" fill="#37474F"/>
<path opacity="0.1" d="M132.899 286.52L131.477 288.922L126.047 296.895L120.361 304.674C120.19 304.917 119.945 305.1 119.662 305.198C119.378 305.296 119.07 305.303 118.783 305.218L118.413 305.093C116.536 304.408 113.722 303.249 109.983 301.56C106.983 300.163 107.14 299.758 107.14 299.255C107.101 298.856 107.101 298.454 107.14 298.054V298.054C109.983 299.283 118.982 303.473 119.28 303.319C119.991 302.984 126.09 293.376 129.331 288.475C130.951 286.031 131.676 284.998 132.174 284.16C132.265 284.06 132.333 283.941 132.373 283.813C132.413 283.684 132.424 283.549 132.405 283.416C132.386 283.283 132.338 283.156 132.264 283.043C132.189 282.93 132.091 282.835 131.975 282.763H131.861C132.18 282.929 132.456 283.165 132.666 283.453C132.875 283.742 133.014 284.075 133.07 284.425C133.225 284.76 133.29 285.128 133.26 285.494C133.231 285.861 133.106 286.213 132.899 286.52V286.52Z" fill="black"/>
<path d="M120.375 281.129L130.354 285.235L119.721 300.763L109.798 296.281L120.375 281.129Z" fill="#FAFAFA"/>
<path d="M117.574 335.242C120.304 334.474 124.426 324.503 127.525 313.192C130.624 301.881 132.259 299.381 132.359 295.82C132.458 292.259 132.202 287.581 132.202 287.581L126.8 295.331C126.566 293.836 126.086 292.388 125.379 291.044C124.682 289.648 123.374 288.544 122.308 289.382C121.739 289.829 123.246 291.742 122.919 296.015C122.893 297.719 123.064 299.42 123.431 301.085L113.395 324.964L117.574 335.242Z" fill="#FFA8A7"/>
<path d="M77.1868 285.724C74.0167 284.844 71.3299 286.506 69.8372 291.463C67.2207 300.797 65.3199 310.31 64.1509 319.923C63.7244 323.372 63.2411 327.562 66.596 327.883C69.1549 328.134 76.5471 326.738 77.8408 325.481C79.5751 323.833 79.2624 317.186 79.2624 317.186H75.4241C75.4241 317.186 76.2486 311.949 76.4903 310.357C77.3432 305.009 78.6084 298.264 78.6084 298.264L77.1868 285.724Z" fill="#F28F8F"/>
<path d="M95.7956 280.822L94.5019 292.008L83.2714 293.292L84.892 278.448L95.7956 280.822Z" fill="#FFA8A7"/>
<path d="M71.7565 264.497C72.6805 254.164 78.3811 249.918 82.788 248.885C91.6871 246.832 100.473 249.765 104.112 255.867C104.945 257.778 105.374 259.835 105.374 261.914C105.374 263.993 104.945 266.05 104.112 267.961C102.178 272.29 71.7991 264.47 71.7991 264.47" fill="#263238"/>
<path d="M104.666 270.055C104.666 270.055 106.273 274.315 105.846 274.636C105.176 274.873 104.469 274.996 103.756 274.999L104.666 270.055Z" fill="#FFA8A7"/>
<path d="M99.8754 256.594C101.994 258.381 105.562 261.621 104.609 270.558C103.557 279.803 101.283 282.302 99.7474 283.196C98.7239 283.797 94.189 282.749 92.085 281.534C89.4693 280.012 83.6693 276.088 81.9065 270.796C79.8167 264.567 80.8687 257.138 85.4462 255.197C87.7754 254.213 90.3206 253.824 92.844 254.069C95.3674 254.313 97.7865 255.182 99.8754 256.594Z" fill="#FFA8A7"/>
<path d="M102.491 256.831C102.537 259.302 102.014 261.752 100.964 263.998C99.9126 266.244 98.36 268.229 96.421 269.804C96.421 269.804 95.0989 266.439 92.1562 267.207C89.2135 267.975 89.313 271.787 91.417 273.854C91.9625 274.444 92.6683 274.87 93.4514 275.08C94.2346 275.29 95.0626 275.277 95.8381 275.041C95.4186 277.682 94.1598 280.126 92.2415 282.023C89.1803 282.715 85.9826 282.544 83.0154 281.532C80.0483 280.519 77.4319 278.705 75.4668 276.298C68.9701 268.631 70.8892 256.454 81.0394 252.865C84.6283 251.45 88.5538 251.072 92.3541 251.775C96.1544 252.477 99.6714 254.231 102.491 256.831V256.831Z" fill="#263238"/>
<path d="M81.9208 449.11L86.7684 455.729C84.5602 456.71 82.1544 457.188 79.7316 457.125C75.3957 457.293 74.2016 455.896 74.0452 455.561C73.306 454.011 74.4575 451.232 74.7702 448.844L81.9208 449.11Z" fill="#263238"/>
<path d="M86.4698 452.531C86.4698 452.531 92.3409 452.154 96.4209 451.651C100.501 451.149 103.699 453.048 102.747 454.738C101.795 456.427 99.5484 457.754 96.0655 458.927C93.0944 459.918 89.512 460.631 86.3987 461.538C83.2854 462.446 81.1673 463.563 79.3618 462.935C77.3432 462.251 76.5187 461.455 76.6466 460.016C77.087 457.966 77.6326 455.938 78.2814 453.942L86.4698 452.531Z" fill="#263238"/>
<path d="M74.0453 442.435C74.0453 442.435 74.7703 448.439 74.8272 449.738C74.884 451.037 80.7978 451.442 81.9351 449.082L82.1199 441.736L74.0453 442.435Z" fill="#F28F8F"/>
<path d="M80.0015 446.135L77.9402 455.254C77.9402 455.254 77.727 456.357 82.5746 457.07C87.4222 457.782 94.9851 454.584 96.2787 453.941C97.5724 453.299 97.7003 452 92.9664 452.252C88.2325 452.503 86.5408 452.531 86.5408 452.531L88.0904 448.481L80.0015 446.135Z" fill="#FFA8A7"/>
<path d="M74.045 324.057C69.9935 330.243 66.1552 335.689 65.3307 342.644C63.5964 357.334 69.2827 374.12 70.4911 384.984C68.1924 388.076 66.8633 391.76 66.667 395.583C66.667 400.08 74.045 442.435 74.045 442.435C74.045 442.435 79.4044 444.041 82.1054 441.736L87.1805 363.814L84.5079 354.332L74.045 324.057Z" fill="#455A64"/>
<path d="M87.1807 363.814L84.5081 354.332C79.478 353.047 74.6239 351.171 70.0505 348.746C70.0505 348.746 72.7942 353.634 80.6272 356.315L84.7071 368.506L85.0625 396.435L87.1807 363.814Z" fill="#37474F"/>
<path d="M74.0452 324.057C71.8843 327.52 66.6955 333.469 67.8044 339.166C69.1407 346.149 72.9221 350.939 84.508 354.332L95.369 392.972C95.369 392.972 89.6826 398.181 87.9909 403.124C86.2992 408.068 80.0016 446.135 80.0016 446.135C80.0016 446.135 81.935 449.235 88.0478 448.481C88.0478 448.481 109.372 400.736 110.793 397.664C112.612 394.52 113.251 390.848 112.599 387.288C111.916 382.289 104.666 327.52 104.666 327.52L74.0452 324.057Z" fill="#455A64"/>
<path d="M72.0691 289.187C72.5049 288.048 73.326 287.09 74.3949 286.475C75.4638 285.86 76.7155 285.624 77.9403 285.808C85.5173 287.832 97.3023 290.5 99.5342 291.142C99.5342 291.142 98.5249 305.484 107.253 310.539C106.841 313.737 104.623 327.52 104.623 327.52C104.623 327.52 94.1322 332.519 85.5031 330.061C76.8741 327.604 73.974 324.057 73.974 324.057L78.2388 317.144C77.3148 314.896 73.7466 307.257 71.4436 300.163C70.6445 296.516 70.8606 292.724 72.0691 289.187Z" fill="#FFB900"/>
<path d="M77.1869 314.421C80.7759 316.542 84.5369 318.368 88.4316 319.881C84.8918 319.791 81.4314 318.831 78.3668 317.088L77.1869 314.421Z" fill="#E0E0E0"/>
<path d="M107.069 309.463C103.968 308.067 101.417 305.713 99.8044 302.76C100.066 305.029 100.858 307.208 102.118 309.126C103.378 311.045 105.072 312.651 107.069 313.82V309.463Z" fill="#E0E0E0"/>
<path d="M99.6052 291.142C104.368 292.538 107.324 292.985 109.898 295.248C113.281 298.236 116.778 315.133 117.489 318.624C118.726 324.671 120.09 330.955 118.754 333.776C117.787 335.815 112.527 337.337 110.225 330.746C109.741 329.349 109.642 328.707 109.215 327.45C107.04 321.138 103.771 309.072 103.771 309.072C103.771 309.072 97.3307 305.581 99.6052 291.142Z" fill="#FFA8A7"/>
<path d="M76.5187 252.865C74.827 253.829 71.7706 254.764 69.8657 263.492C68.3148 270.814 67.3923 278.25 67.1078 285.724C67.1789 288.433 72.8937 295.96 84.9487 295.248C97.0038 294.535 101.382 287.595 101.382 287.595C101.382 287.595 95.4543 285.221 95.9234 275.027C95.9234 275.027 93.8337 279.063 88.1046 277.038C82.3756 275.013 76.5187 252.865 76.5187 252.865Z" fill="#263238"/>
</svg>
