<?xml version="1.0" standalone="no"?>
<!DOCTYPE svg PUBLIC "-//W3C//DTD SVG 20010904//EN"
 "http://www.w3.org/TR/2001/REC-SVG-20010904/DTD/svg10.dtd">
<svg version="1.0" xmlns="http://www.w3.org/2000/svg"
 width="80.000000pt" height="80.000000pt" viewBox="0 0 80.000000 80.000000"
 preserveAspectRatio="xMidYMid meet">
<metadata>
Created by potrace 1.14, written by Peter Selinger 2001-2017
</metadata>
<g transform="translate(0.000000,80.000000) scale(0.100000,-0.100000)"
fill="#000000" stroke="none">
<path d="M602 714 l-44 -44 27 -31 c111 -133 112 -354 1 -486 l-25 -30 43 -42
c25 -24 48 -39 57 -36 22 8 77 95 106 166 51 124 39 303 -28 429 -24 45 -84
123 -92 119 -1 -1 -22 -21 -45 -45z"/>
<path d="M451 596 l-43 -44 28 -38 c26 -34 29 -45 29 -113 0 -66 -4 -82 -27
-118 l-27 -41 44 -41 c25 -23 48 -41 52 -41 13 0 70 92 83 134 17 52 17 151 2
206 -13 44 -74 140 -90 140 -4 0 -27 -20 -51 -44z"/>
<path d="M83 572 c-63 -4 -83 -25 -83 -87 l0 -40 132 1 c115 1 133 -1 150 -18
23 -23 23 -33 -1 -57 -17 -17 -34 -20 -113 -20 -51 1 -110 0 -130 0 l-38 -1 0
-120 c0 -107 2 -122 20 -140 25 -25 51 -25 80 -2 18 14 23 30 25 73 2 30 3 57
4 61 1 4 37 7 80 7 94 -1 139 17 179 69 23 30 27 45 27 102 0 57 -4 72 -27
102 -15 19 -42 42 -60 51 -33 16 -148 25 -245 19z"/>
</g>
</svg>
