<svg
  width="541"
  height="474"
  viewBox="0 0 541 474"
  fill="none"
  xmlns="http://www.w3.org/2000/svg"
>
  <path
    d="M79.1224 428.504C184.562 489.165 355.524 489.165 460.963 428.504C566.403 367.843 566.403 269.49 460.963 208.815C355.524 148.141 184.61 148.154 79.1224 208.815C-26.3652 269.476 -26.2688 367.843 79.1224 428.504Z"
    fill="#F5F5F5"
  />
  <path
    d="M49.7306 329.022L15.4562 307.235V226.274L49.7306 248.074V329.022Z"
    fill="#E0E0E0"
  />
  <path
    d="M49.7305 248.074L98.7008 216.941V297.888L49.7305 329.022V248.074Z"
    fill="#EBEBEB"
  />
  <path
    d="M98.701 216.941L49.7306 248.074L15.4562 226.274L64.4265 195.14L98.701 216.941Z"
    fill="#F5F5F5"
  />
  <path
    d="M54.6372 251.182L93.8062 226.275L94.7104 226.846V256.838L55.5293 281.745L54.6251 281.174L54.6372 251.182Z"
    fill="#E0E0E0"
  />
  <path
    d="M55.5292 251.766L94.7103 226.845V256.837L55.5292 281.744V251.766Z"
    fill="#F5F5F5"
  />
  <path
    d="M70.8883 247.079L77.5551 242.844C78.4111 242.286 79.1103 242.538 79.1103 243.401C79.0482 243.93 78.8754 244.435 78.6055 244.878C78.3356 245.32 77.976 245.687 77.5551 245.95L70.8883 250.186C70.0203 250.743 69.321 250.491 69.321 249.628C69.3835 249.098 69.5578 248.591 69.83 248.149C70.1021 247.706 70.4646 247.34 70.8883 247.079V247.079Z"
    fill="#E0E0E0"
  />
  <path
    d="M53.733 289.126L92.9021 264.219V294.211L93.8063 294.781L54.6252 319.688L53.733 319.118V289.126Z"
    fill="#E0E0E0"
  />
  <path
    d="M54.6251 289.697L93.8062 264.79V294.782L54.6251 319.689V289.697Z"
    fill="#F5F5F5"
  />
  <path
    d="M69.9841 285.024L76.7112 280.802C77.5792 280.244 78.2785 280.497 78.2785 281.36C78.216 281.89 78.0417 282.396 77.7695 282.839C77.4974 283.282 77.135 283.648 76.7112 283.909L70.0444 288.144C69.1764 288.701 68.4772 288.449 68.4772 287.586C68.5313 287.06 68.6956 286.555 68.9571 286.11C69.2186 285.665 69.5701 285.294 69.9841 285.024Z"
    fill="#E0E0E0"
  />
  <path
    d="M49.7306 243.401L15.4562 221.601V140.653L49.7306 162.44V243.401Z"
    fill="#E0E0E0"
  />
  <path
    d="M49.7305 162.44L98.7008 131.307V212.268L49.7305 243.401V162.44Z"
    fill="#EBEBEB"
  />
  <path
    d="M98.701 131.306L49.7306 162.44L15.4562 140.653L64.4265 109.519L98.701 131.306Z"
    fill="#F5F5F5"
  />
  <path
    d="M54.6251 165.56L93.8062 140.653L94.7104 141.224V171.216L55.5293 196.123L54.6251 195.539V165.56Z"
    fill="#E0E0E0"
  />
  <path
    d="M70.8883 161.444L77.543 157.209C78.4111 156.665 79.1103 156.917 79.1103 157.78C79.046 158.309 78.8709 158.815 78.599 159.257C78.327 159.7 77.9656 160.067 77.543 160.329L70.8883 164.564C70.0203 165.109 69.321 164.87 69.321 164.007C69.3845 163.475 69.5591 162.967 69.831 162.522C70.103 162.078 70.4649 161.709 70.8883 161.444V161.444Z"
    fill="#E0E0E0"
  />
  <path
    d="M53.733 203.505L92.9021 178.598V208.577L93.8063 209.147L54.6252 234.054L53.733 233.484V203.505Z"
    fill="#E0E0E0"
  />
  <path
    d="M54.6251 204.075L93.8062 179.168V209.147L54.6251 234.054V204.075Z"
    fill="#F5F5F5"
  />
  <path
    d="M69.9841 199.389L76.7112 195.154C77.5672 194.609 78.2785 194.862 78.2785 195.725C78.2106 196.253 78.0341 196.757 77.7625 197.199C77.491 197.641 77.1314 198.008 76.7112 198.274L69.9841 202.469C69.1161 203.014 68.4169 202.761 68.4169 201.912C68.4856 201.387 68.6626 200.887 68.9343 200.45C69.206 200.012 69.5651 199.65 69.9841 199.389V199.389Z"
    fill="#E0E0E0"
  />
  <path
    d="M54.6251 165.56L93.8062 140.653V170.632L54.6251 195.539V165.56Z"
    fill="#E0E0E0"
  />
  <path
    d="M113.397 155.47L91.9497 141.835V168.255L113.397 181.877V155.47Z"
    fill="#E0E0E0"
  />
  <path
    d="M69.321 199.814V162.44L77.7239 157.077L79.1103 159.334L103.595 143.76V178.014L69.321 199.814Z"
    fill="#EBEBEB"
  />
  <path
    d="M69.321 199.814L71.7684 167.113L106.043 145.326L103.595 178.014L69.321 199.814Z"
    fill="#F5F5F5"
  />
  <path
    d="M74.2155 180.377L55.5292 168.494V194.915L74.2155 206.784V180.377Z"
    fill="#EBEBEB"
  />
  <path
    d="M74.2156 178.013L113.397 153.106V183.085L74.2156 207.992V178.013Z"
    fill="#F5F5F5"
  />
  <path
    d="M89.5747 173.327L96.2295 169.092C97.0975 168.547 97.7967 168.8 97.7967 169.663C97.7315 170.192 97.5561 170.697 97.2842 171.139C97.0124 171.582 96.6514 171.949 96.2295 172.212L89.5747 176.447C88.7067 176.991 88.0074 176.739 88.0074 175.889C88.0709 175.358 88.2455 174.85 88.5174 174.405C88.7894 173.961 89.1513 173.591 89.5747 173.327Z"
    fill="#E0E0E0"
  />
  <path
    d="M74.2152 178.013L72.9136 177.19V207.169L74.2152 207.992V178.013Z"
    fill="#E0E0E0"
  />
  <path
    d="M72.9136 177.19L112.083 152.27L113.397 153.106L74.2156 178.013L72.9136 177.19Z"
    fill="#EBEBEB"
  />
  <path
    d="M454.658 279.978L420.372 258.178V177.23L454.658 199.017V279.978Z"
    fill="#E0E0E0"
  />
  <path
    d="M454.658 199.017L503.629 167.884V248.845L454.658 279.978V199.017Z"
    fill="#EBEBEB"
  />
  <path
    d="M503.629 167.883L454.658 199.017L420.372 177.23L469.354 146.083L503.629 167.883Z"
    fill="#F5F5F5"
  />
  <path
    d="M459.552 202.137L498.734 177.23L499.638 177.801L499.626 207.779L460.457 232.686L459.552 232.116V202.137Z"
    fill="#E0E0E0"
  />
  <path
    d="M460.457 202.709L499.638 177.802L499.626 207.78L460.457 232.687V202.709Z"
    fill="#F5F5F5"
  />
  <path
    d="M475.816 198.022L482.471 193.787C483.339 193.242 484.038 193.494 484.038 194.344C483.974 194.876 483.8 195.384 483.528 195.828C483.256 196.273 482.894 196.642 482.471 196.907L475.816 201.142C474.948 201.686 474.249 201.434 474.249 200.584C474.312 200.053 474.487 199.545 474.758 199.1C475.03 198.655 475.392 198.286 475.816 198.022V198.022Z"
    fill="#E0E0E0"
  />
  <path
    d="M458.649 240.082L497.83 215.162V245.154L498.734 245.724L459.553 270.631L458.649 270.061V240.082Z"
    fill="#E0E0E0"
  />
  <path
    d="M459.552 240.652L498.734 215.745V245.724L459.552 270.631V240.652Z"
    fill="#F5F5F5"
  />
  <path
    d="M474.912 235.966L481.579 231.731C482.435 231.186 483.134 231.439 483.134 232.288C483.07 232.818 482.897 233.324 482.627 233.769C482.357 234.213 481.999 234.583 481.579 234.851L474.912 239.086C474.044 239.63 473.345 239.378 473.345 238.515C473.41 237.986 473.585 237.48 473.857 237.038C474.129 236.596 474.49 236.229 474.912 235.966Z"
    fill="#E0E0E0"
  />
  <path
    d="M128.551 364.591C128.551 364.591 128.684 343.534 116.628 327.748C105.958 313.768 100.28 304.899 103.644 300.81C107.007 296.721 114.241 295.738 123.994 307.05C133.747 318.362 134.506 349.695 133.156 356.784L128.551 364.591Z"
    fill="#02897A"
  />
  <path
    opacity="0.2"
    d="M128.551 364.591C128.551 364.591 128.684 343.534 116.628 327.748C105.958 313.768 100.28 304.899 103.644 300.81C107.007 296.721 114.241 295.738 123.994 307.05C133.747 318.362 134.506 349.695 133.156 356.784L128.551 364.591Z"
    fill="black"
  />
  <path
    d="M130.576 341.954C130.439 341.955 130.306 341.904 130.198 341.809C130.091 341.715 130.016 341.584 129.986 341.436C125.766 319.702 114.94 307.687 108.852 302.456C108.726 302.348 108.644 302.19 108.623 302.016C108.603 301.842 108.646 301.666 108.744 301.526C108.843 301.387 108.989 301.296 109.149 301.274C109.309 301.251 109.471 301.299 109.599 301.407C115.808 306.718 126.863 319.012 131.167 341.157C131.185 341.242 131.187 341.33 131.173 341.415C131.16 341.501 131.131 341.582 131.088 341.655C131.045 341.728 130.99 341.791 130.925 341.84C130.86 341.889 130.786 341.923 130.709 341.941L130.576 341.954Z"
    fill="white"
  />
  <path
    d="M128.093 372.411L123.186 375.531C122.663 373.956 121.78 372.556 120.623 371.465C119.466 370.375 118.073 369.631 116.58 369.304C111.215 367.977 105.645 368.202 101.884 363.078C98.1222 357.953 102.703 352.377 101.884 348.606C101.064 344.835 100.533 343.747 93.8063 339.976C87.0792 336.206 84.4269 329.952 89.4903 325.717C94.5537 321.482 102.752 324.588 107.719 328.372C112.131 331.692 116.326 332.568 121.257 333.245C126.188 333.922 134.217 336.936 132.987 349.549C132.182 357.356 130.539 365.03 128.093 372.411V372.411Z"
    fill="#02897A"
  />
  <path
    d="M109.262 355.842C109.133 355.841 109.009 355.795 108.905 355.712C108.801 355.628 108.724 355.511 108.683 355.377C108.638 355.208 108.654 355.026 108.728 354.87C108.802 354.714 108.929 354.596 109.081 354.541C109.515 354.395 119.931 350.757 124.356 354.66C124.465 354.774 124.532 354.93 124.543 355.096C124.554 355.261 124.508 355.426 124.414 355.556C124.32 355.686 124.185 355.773 124.036 355.799C123.887 355.825 123.734 355.788 123.608 355.696C119.702 352.244 109.551 355.775 109.443 355.815L109.262 355.842Z"
    fill="white"
  />
  <path
    d="M128.635 371.401C128.488 371.402 128.347 371.343 128.237 371.235C128.128 371.127 128.059 370.978 128.044 370.817C125.356 342.857 94.7707 329.593 94.4693 329.46C94.3946 329.43 94.3261 329.383 94.268 329.322C94.2099 329.262 94.1632 329.19 94.1307 329.109C94.0981 329.029 94.0804 328.943 94.0785 328.855C94.0766 328.767 94.0906 328.679 94.1197 328.597C94.1789 328.437 94.2921 328.307 94.4357 328.235C94.5792 328.164 94.7423 328.155 94.8912 328.212C95.2167 328.358 126.477 341.901 129.238 370.698C129.255 370.872 129.209 371.046 129.109 371.183C129.01 371.32 128.866 371.408 128.708 371.428L128.635 371.401Z"
    fill="white"
  />
  <path
    d="M428.497 354.049C428.63 353.585 433.802 324.27 428.497 303.479C423.675 284.413 417.382 277.377 408.412 275.823C399.443 274.27 395.549 281.386 400.311 291.025C405.073 300.664 416.538 313.449 419.347 334.984C420.552 343.853 421.469 351.553 421.469 351.553L428.497 354.049Z"
    fill="#02897A"
  />
  <path
    opacity="0.2"
    d="M428.497 354.049C428.63 353.585 433.802 324.27 428.497 303.479C423.675 284.413 417.382 277.377 408.412 275.823C399.443 274.27 395.549 281.386 400.311 291.025C405.073 300.664 416.538 313.449 419.347 334.984C420.552 343.853 421.469 351.553 421.469 351.553L428.497 354.049Z"
    fill="black"
  />
  <path
    d="M425.471 337.214C425.392 337.209 425.314 337.187 425.243 337.149C425.172 337.111 425.108 337.058 425.055 336.992C425.002 336.927 424.962 336.851 424.936 336.768C424.91 336.685 424.9 336.598 424.904 336.511C426.11 312.772 419.07 291.583 406.447 281.187C406.319 281.081 406.235 280.924 406.212 280.75C406.19 280.576 406.231 280.398 406.327 280.258C406.424 280.12 406.567 280.029 406.724 280.004C406.882 279.979 407.042 280.023 407.17 280.125C420.106 290.746 427.364 312.414 426.098 336.59C426.089 336.764 426.018 336.927 425.9 337.044C425.783 337.16 425.629 337.222 425.471 337.214Z"
    fill="white"
  />
  <path
    d="M442.373 369.318C441.686 363.861 444.531 355.683 451.294 353.744C458.058 351.806 461.072 347.531 458.636 342.857C456.201 338.184 456.768 333.896 462.904 331.957C469.04 330.019 474.417 326.646 470.885 319.504C468.317 314.339 467.75 310.993 474.044 300.823C479.264 292.379 474.996 287.427 468.462 288.357C461.928 289.286 457.889 297.863 453.802 299.297C449.715 300.73 448.775 293.083 443.386 296.508C437.997 299.934 438.322 308.71 438.154 314.83C437.985 320.951 437.623 322.332 432.753 321.588C427.882 320.845 423.108 321.721 423.217 334.692C423.301 345.818 428.69 359.599 428.69 359.599L442.373 369.318Z"
    fill="#02897A"
  />
  <path
    d="M433.826 361.02H433.766C433.605 361 433.457 360.91 433.356 360.771C433.254 360.632 433.207 360.454 433.224 360.276C436.623 326.832 462.688 298.619 469.487 292.897C469.615 292.79 469.776 292.743 469.936 292.766C470.095 292.79 470.24 292.882 470.337 293.023C470.435 293.164 470.477 293.342 470.456 293.517C470.434 293.693 470.35 293.852 470.223 293.959C463.508 299.602 437.781 327.443 434.429 360.422C434.412 360.585 434.341 360.736 434.23 360.846C434.119 360.956 433.976 361.018 433.826 361.02V361.02Z"
    fill="white"
  />
  <path
    d="M445.713 325.266C445.591 325.265 445.472 325.224 445.371 325.149C445.27 325.073 445.192 324.966 445.146 324.841C445.095 324.674 445.103 324.491 445.171 324.33C445.238 324.17 445.359 324.044 445.508 323.978C455.225 319.995 466.244 321.88 466.714 321.96C466.87 321.989 467.009 322.085 467.102 322.227C467.194 322.368 467.233 322.544 467.208 322.717C467.179 322.888 467.092 323.041 466.964 323.144C466.837 323.248 466.678 323.294 466.521 323.274C466.413 323.274 455.345 321.363 445.93 325.226C445.86 325.252 445.787 325.266 445.713 325.266V325.266Z"
    fill="white"
  />
  <path
    d="M437.056 345.366C436.972 345.365 436.888 345.345 436.812 345.306C436.735 345.267 436.666 345.211 436.61 345.141C432.569 339.958 429.83 333.701 428.666 326.992C428.654 326.905 428.657 326.817 428.676 326.732C428.695 326.648 428.729 326.568 428.776 326.497C428.823 326.427 428.882 326.368 428.95 326.323C429.018 326.278 429.094 326.248 429.172 326.235C429.25 326.222 429.33 326.226 429.407 326.246C429.484 326.267 429.557 326.305 429.621 326.357C429.684 326.408 429.738 326.474 429.779 326.548C429.82 326.623 429.847 326.706 429.859 326.792C431.012 333.238 433.648 339.249 437.515 344.251C437.59 344.349 437.638 344.468 437.655 344.595C437.671 344.722 437.654 344.852 437.606 344.969C437.558 345.085 437.481 345.185 437.384 345.255C437.286 345.326 437.173 345.364 437.056 345.366V345.366Z"
    fill="white"
  />
  <path
    d="M128.093 166.927V372.423L319.079 250.995L319.067 64.179L177.063 154.474L172.156 138.9L128.093 166.927Z"
    fill="#22343D"
  />
  <path
    d="M128.093 372.423L137.882 185.607L328.869 64.179L319.079 250.995L128.093 372.423Z"
    fill="#E0E0E0"
  />
  <path
    d="M128.093 372.424L142.777 188.728L333.763 67.2863L319.079 250.995L128.093 372.424Z"
    fill="#22343D"
  />
  <path
    d="M157.473 185.608V391.117L348.459 269.676V82.8601L206.443 173.155L201.548 157.581L157.473 185.608Z"
    fill="#F03E3D"
  />
  <path
    d="M157.473 391.117L167.262 204.288L358.249 82.8601L348.459 269.676L157.473 391.117Z"
    fill="#E0E0E0"
  />
  <path
    d="M157.473 391.117L172.156 207.408L363.143 85.9666L348.459 269.676L157.473 391.117Z"
    fill="#F03E3D"
  />
  <path
    d="M319.031 456.505C284.745 434.705 252.942 411.006 238.427 383.205L282.55 355.151L319.031 456.505Z"
    fill="#E0E0E0"
  />
  <path
    d="M191.747 207.408V412.904L382.733 291.476V104.66L240.717 194.955L235.822 179.381L191.747 207.408Z"
    fill="#02897A"
  />
  <path
    opacity="0.2"
    d="M191.747 207.408V412.904L382.733 291.476V104.66L240.717 194.955L235.822 179.381L191.747 207.408Z"
    fill="black"
  />
  <path
    d="M246.769 268.162C246.287 268.162 246.215 267.551 246.215 267.192V91.9405C246.254 91.2607 246.435 90.6 246.744 90.0103C247.054 89.4206 247.483 88.9179 247.999 88.5417L385.844 0.9158C386.033 0.786134 386.249 0.712908 386.471 0.703369C386.953 0.703369 387.026 1.3141 387.026 1.67257V176.924C386.988 177.606 386.807 178.269 386.498 178.861C386.188 179.453 385.758 179.958 385.241 180.337L247.396 267.962C247.206 268.086 246.99 268.154 246.769 268.162Z"
    fill="white"
  />
  <path
    d="M386.399 1.3146C386.408 1.41166 386.408 1.50962 386.399 1.60669V176.859C386.359 177.424 386.205 177.972 385.949 178.464C385.692 178.955 385.339 179.377 384.916 179.7L247.071 267.326L246.83 267.445C246.814 267.349 246.814 267.25 246.83 267.153V91.9012C246.871 91.3383 247.026 90.7925 247.282 90.3035C247.538 89.8144 247.89 89.3942 248.312 89.0733L386.158 1.44736C386.234 1.3888 386.32 1.34812 386.411 1.32788L386.399 1.3146ZM386.483 0.0002121C386.155 0.0109757 385.835 0.116261 385.555 0.30558L247.71 87.9315C247.104 88.3699 246.599 88.9585 246.237 89.6502C245.875 90.3419 245.665 91.1173 245.624 91.9145V267.166C245.624 268.202 246.094 268.799 246.83 268.799C247.158 268.79 247.478 268.685 247.758 268.494L385.603 180.868C386.212 180.433 386.718 179.845 387.081 179.153C387.443 178.46 387.651 177.683 387.689 176.885V1.63325C387.689 0.597666 387.219 -0.0130646 386.483 0.0002121V0.0002121Z"
    fill="#02897A"
  />
  <path
    opacity="0.7"
    d="M386.399 1.3146C386.408 1.41166 386.408 1.50962 386.399 1.60669V176.859C386.359 177.424 386.205 177.972 385.949 178.464C385.692 178.955 385.339 179.377 384.916 179.7L247.071 267.326L246.83 267.445C246.814 267.349 246.814 267.25 246.83 267.153V91.9012C246.871 91.3383 247.026 90.7925 247.282 90.3035C247.538 89.8144 247.89 89.3942 248.312 89.0733L386.158 1.44736C386.234 1.3888 386.32 1.34812 386.411 1.32788L386.399 1.3146ZM386.483 0.0002121C386.155 0.0109757 385.835 0.116261 385.555 0.30558L247.71 87.9315C247.104 88.3699 246.599 88.9585 246.237 89.6502C245.875 90.3419 245.665 91.1173 245.624 91.9145V267.166C245.624 268.202 246.094 268.799 246.83 268.799C247.158 268.79 247.478 268.685 247.758 268.494L385.603 180.868C386.212 180.433 386.718 179.845 387.081 179.153C387.443 178.46 387.651 177.683 387.689 176.885V1.63325C387.689 0.597666 387.219 -0.0130646 386.483 0.0002121V0.0002121Z"
    fill="white"
  />
  <path
    d="M260.308 98.5927L309.278 67.459V129.727L260.308 160.86V98.5927Z"
    fill="#02897A"
  />
  <path
    opacity="0.8"
    d="M260.308 98.5927L309.278 67.459V129.727L260.308 160.86V98.5927Z"
    fill="#11B5E4"
  />
  <path
    d="M301.936 82.9797V101.7L300.393 102.642V96.9202C300.393 93.7604 298.067 92.685 295.173 94.5172L274.425 107.727C271.544 109.56 269.205 113.609 269.205 116.769V122.491L267.674 123.5V104.82L301.936 82.9797Z"
    fill="white"
  />
  <path
    d="M292.509 130.643C290.001 132.236 287.964 130.563 287.964 126.885V96.9199L281.658 100.69V130.895C281.658 134.559 279.621 138.861 277.113 140.414L272.556 143.309V145.3L297.042 129.727V127.748L292.509 130.643Z"
    fill="white"
  />
  <path
    d="M319.031 64.3923C319.031 66.1183 320.442 66.6095 322.166 65.5208L369.81 35.1837C370.655 34.656 371.378 33.9199 371.922 33.0331C372.466 32.1463 372.816 31.1328 372.944 30.0722C372.944 28.3595 371.534 27.8549 369.81 28.9569L322.202 59.2277C321.343 59.7543 320.608 60.4962 320.057 61.3934C319.506 62.2906 319.155 63.3179 319.031 64.3923V64.3923Z"
    fill="#455A64"
  />
  <path
    d="M319.031 82.9796C319.031 84.7056 320.442 85.2101 322.166 84.1081L369.774 53.8374C370.619 53.3097 371.342 52.5736 371.886 51.6868C372.43 50.8 372.78 49.7865 372.908 48.7258C372.908 47.0131 371.498 46.5086 369.774 47.6106L322.166 77.8814C321.322 78.4077 320.6 79.1417 320.056 80.0261C319.512 80.9105 319.162 81.9213 319.031 82.9796Z"
    fill="#455A64"
  />
  <path
    d="M319.031 101.699C319.031 103.425 320.442 103.929 322.166 102.827L369.774 72.5567C370.618 72.0304 371.34 71.2963 371.883 70.412C372.427 69.5276 372.778 68.5168 372.908 67.4585C372.908 65.7325 371.498 65.228 369.774 66.33L322.166 96.6007C321.322 97.1271 320.6 97.8611 320.056 98.7455C319.512 99.6299 319.162 100.641 319.031 101.699V101.699Z"
    fill="#455A64"
  />
  <path
    d="M319.031 120.38C319.031 122.106 320.442 122.61 322.166 121.509L369.774 91.2377C370.618 90.7114 371.34 89.9774 371.883 89.093C372.427 88.2086 372.778 87.1978 372.908 86.1395C372.908 84.4135 371.498 83.909 369.774 85.011L322.166 115.282C321.322 115.808 320.6 116.542 320.056 117.426C319.512 118.311 319.162 119.322 319.031 120.38V120.38Z"
    fill="#455A64"
  />
  <path
    d="M260.308 176.434C260.308 178.16 261.706 178.665 263.442 177.563L369.81 109.852C370.655 109.327 371.378 108.593 371.922 107.709C372.466 106.824 372.816 105.812 372.945 104.753C372.945 103.028 371.534 102.536 369.81 103.625L263.442 171.336C262.597 171.86 261.873 172.593 261.329 173.478C260.785 174.363 260.436 175.375 260.308 176.434V176.434Z"
    fill="#455A64"
  />
  <path
    d="M260.308 195.114C260.308 196.84 261.706 197.344 263.442 196.242L369.81 128.611C370.655 128.083 371.378 127.347 371.922 126.46C372.466 125.574 372.816 124.56 372.945 123.499C372.945 121.787 371.534 121.282 369.81 122.384L263.442 190.015C262.597 190.539 261.873 191.273 261.329 192.158C260.785 193.042 260.436 194.054 260.308 195.114V195.114Z"
    fill="#455A64"
  />
  <path
    d="M260.308 213.807C260.308 215.52 261.706 216.024 263.442 214.922L369.81 147.291C370.655 146.763 371.378 146.027 371.922 145.141C372.466 144.254 372.816 143.24 372.945 142.18C372.945 140.467 371.534 139.962 369.81 141.064L263.442 208.696C262.595 209.221 261.871 209.956 261.327 210.844C260.783 211.731 260.434 212.746 260.308 213.807V213.807Z"
    fill="#455A64"
  />
  <path
    d="M191.747 412.904L226.021 247.889L417.008 126.447L382.733 291.476L191.747 412.904Z"
    fill="#02897A"
  />
  <path
    d="M238.475 260.807V383.204L282.55 355.177V232.793L238.475 260.807Z"
    fill="#02897A"
  />
  <path
    opacity="0.2"
    d="M238.475 260.807V383.204L282.55 355.177V232.793L238.475 260.807Z"
    fill="black"
  />
  <path
    d="M319.115 455.709C315.366 452.628 279.223 422.212 260.85 378.704C241.296 332.448 241.32 278.492 241.32 258.192V257.554L372.341 174.257C372.341 194.743 372.341 248.779 391.98 295.194C409.931 337.679 444.688 367.711 450.197 372.305L319.115 455.709Z"
    fill="white"
  />
  <path
    d="M371.739 175.451C371.739 196.8 372.112 249.801 391.438 295.525C408.786 336.55 441.77 366.051 449.112 372.278L319.152 454.912C314.076 450.703 279.295 420.791 261.405 378.478C241.874 332.355 241.874 278.505 241.874 258.231V257.979L371.69 175.438L371.739 175.451ZM372.896 173.141L240.669 257.222C240.669 276.327 240.307 331.837 260.259 379.036C279.898 425.358 319.031 456.505 319.031 456.505L451.294 372.411C451.294 372.411 412.113 341.263 392.535 294.941C372.571 247.743 372.944 192.233 372.944 173.128L372.896 173.141Z"
    fill="#02897A"
  />
  <path
    opacity="0.7"
    d="M371.739 175.451C371.739 196.8 372.112 249.801 391.438 295.525C408.786 336.55 441.77 366.051 449.112 372.278L319.152 454.912C314.076 450.703 279.295 420.791 261.405 378.478C241.874 332.355 241.874 278.505 241.874 258.231V257.979L371.69 175.438L371.739 175.451ZM372.896 173.141L240.669 257.222C240.669 276.327 240.307 331.837 260.259 379.036C279.898 425.358 319.031 456.505 319.031 456.505L451.294 372.411C451.294 372.411 412.113 341.263 392.535 294.941C372.571 247.743 372.944 192.233 372.944 173.128L372.896 173.141Z"
    fill="white"
  />
  <path
    d="M357.983 201.34L316.174 227.894C315.337 228.401 314.624 229.123 314.095 230C313.566 230.876 313.237 231.879 313.136 232.926C313.196 234.612 314.655 235.09 316.379 233.988L358.2 207.434C359.027 206.932 359.733 206.219 360.26 205.355C360.786 204.492 361.117 203.502 361.226 202.469C361.154 200.716 359.719 200.239 357.983 201.34Z"
    fill="#455A64"
  />
  <path
    d="M358.875 219.463L317.066 246.017C316.239 246.506 315.538 247.218 315.028 248.087C314.518 248.955 314.215 249.951 314.148 250.982C314.281 252.615 315.8 253.053 317.524 251.951L359.345 225.398C360.168 224.91 360.865 224.2 361.369 223.333C361.873 222.467 362.168 221.473 362.227 220.446C362.106 218.799 360.611 218.401 358.875 219.463Z"
    fill="#455A64"
  />
  <path
    d="M360.551 237.082L318.73 263.635C317.006 264.737 315.752 266.928 315.957 268.508C316.162 270.088 317.741 270.499 319.477 269.397L361.299 242.844C363.023 241.742 364.252 239.565 364.035 237.985C363.818 236.405 362.275 235.98 360.551 237.082Z"
    fill="#455A64"
  />
  <path
    d="M363.059 254.169L321.238 280.722C319.514 281.824 318.32 283.975 318.609 285.515C318.899 287.055 320.538 287.4 322.226 286.298L364.035 259.745C365.771 258.643 366.929 256.505 366.639 254.965C366.35 253.425 364.843 253.067 363.059 254.169Z"
    fill="#455A64"
  />
  <path
    d="M366.459 270.685L324.637 297.238C322.913 298.34 321.792 300.438 322.226 301.912C322.66 303.385 324.312 303.717 326.036 302.615L367.857 276.062C369.593 274.96 370.678 272.876 370.268 271.389C369.858 269.902 368.183 269.583 366.459 270.685Z"
    fill="#455A64"
  />
  <path
    d="M370.871 286.604L268.952 351.407C267.228 352.509 266.179 354.554 266.649 355.974C267.12 357.395 268.916 357.66 270.64 356.559L372.559 291.755C374.295 290.653 375.296 288.622 374.825 287.188C374.355 285.754 372.535 285.502 370.871 286.604Z"
    fill="#455A64"
  />
  <path
    d="M376.235 301.805L274.328 366.608C272.592 367.71 271.64 369.702 272.219 371.056C272.797 372.41 274.63 372.623 276.39 371.521L378.309 306.717C380.045 305.615 380.973 303.624 380.395 302.27C379.816 300.916 377.971 300.716 376.235 301.805Z"
    fill="#455A64"
  />
  <path
    d="M382.927 316.29L281.007 381.094C279.271 382.196 278.415 384.134 279.103 385.422C279.79 386.71 281.755 386.842 283.491 385.74L385.338 320.937C387.062 319.848 387.893 317.923 387.206 316.635C386.519 315.348 384.614 315.188 382.927 316.29Z"
    fill="#455A64"
  />
  <path
    d="M390.727 329.992L288.82 394.782C287.084 395.884 286.312 397.782 287.096 398.99C287.879 400.199 289.941 400.318 291.677 399.203L393.584 334.399C395.32 333.298 396.067 331.425 395.284 330.204C394.5 328.983 392.463 328.89 390.727 329.992Z"
    fill="#455A64"
  />
  <path
    d="M399.624 343.016L297.705 407.806C295.981 408.908 295.293 410.753 296.161 411.908C297.029 413.064 299.163 413.117 300.899 412.015L402.818 347.185C404.542 346.083 405.23 344.264 404.337 343.109C403.445 341.954 401.36 341.874 399.624 343.016Z"
    fill="#455A64"
  />
  <path
    d="M409.449 355.416L307.566 420.206C305.83 421.308 305.155 423.114 306.168 424.189C307.18 425.264 309.326 425.291 311.05 424.189L412.969 359.386C414.705 358.284 415.308 356.505 414.344 355.403C413.379 354.301 411.209 354.327 409.449 355.416Z"
    fill="#455A64"
  />
  <path
    d="M420.3 367.273L318.38 432.063C316.656 433.165 316.09 434.93 317.175 435.979C318.26 437.028 320.478 436.988 322.214 435.886L424.049 371.083C425.773 369.981 426.315 368.255 425.254 367.193C424.194 366.131 421.987 366.171 420.3 367.273Z"
    fill="#455A64"
  />
  <path
    d="M301.02 237.573L252.941 268.109C253.472 287.294 255.461 314.962 262.743 342.83L310.833 312.294C303.539 284.426 301.55 256.744 301.02 237.573Z"
    fill="#02897A"
  />
  <path
    opacity="0.8"
    d="M301.02 237.573L252.941 268.109C253.472 287.294 255.461 314.962 262.743 342.83L310.833 312.294C303.539 284.426 301.55 256.744 301.02 237.573Z"
    fill="#11B5E4"
  />
  <path
    d="M272.544 263.887C272.609 262.649 272.434 261.409 272.031 260.251C271.627 259.093 271.005 258.042 270.205 257.169L252.941 268.135C253.086 273.207 253.327 278.876 253.749 284.984C255.995 285.268 258.266 284.806 260.271 283.656C267.059 280.23 272.544 271.348 272.544 263.887Z"
    fill="#02897A"
  />
  <path
    opacity="0.6"
    d="M272.544 263.887C272.609 262.649 272.434 261.409 272.031 260.251C271.627 259.093 271.005 258.042 270.205 257.169L252.941 268.135C253.086 273.207 253.327 278.876 253.749 284.984C255.995 285.268 258.266 284.806 260.271 283.656C267.059 280.23 272.544 271.348 272.544 263.887Z"
    fill="white"
  />
  <path
    d="M306.746 293.972C303.539 289.525 297.017 275.783 294.232 269.796C294.123 269.559 293.951 269.364 293.74 269.235C293.529 269.107 293.288 269.052 293.048 269.076C292.808 269.1 292.579 269.203 292.393 269.372C292.207 269.54 292.07 269.767 292.002 270.021C288.989 281.363 287.24 293.066 286.794 304.872C282.779 301.362 279.327 297.135 276.583 292.366C276.466 292.181 276.303 292.037 276.114 291.951C275.925 291.864 275.718 291.839 275.517 291.878C275.315 291.917 275.128 292.019 274.977 292.171C274.827 292.323 274.719 292.52 274.666 292.738C269.41 315.029 272.05 336.962 272.05 336.962L310.833 312.294C309.218 306.134 307.879 300 306.746 293.972Z"
    fill="#02897A"
  />
  <path
    opacity="0.6"
    d="M306.746 293.972C303.539 289.525 297.017 275.783 294.232 269.796C294.123 269.559 293.951 269.364 293.74 269.235C293.529 269.107 293.288 269.052 293.048 269.076C292.808 269.1 292.579 269.203 292.393 269.372C292.207 269.54 292.07 269.767 292.002 270.021C288.989 281.363 287.24 293.066 286.794 304.872C282.779 301.362 279.327 297.135 276.583 292.366C276.466 292.181 276.303 292.037 276.114 291.951C275.925 291.864 275.718 291.839 275.517 291.878C275.315 291.917 275.128 292.019 274.977 292.171C274.827 292.323 274.719 292.52 274.666 292.738C269.41 315.029 272.05 336.962 272.05 336.962L310.833 312.294C309.218 306.134 307.879 300 306.746 293.972Z"
    fill="white"
  />
</svg>
