<svg width="540" height="500" viewBox="0 0 540 500" fill="none" xmlns="http://www.w3.org/2000/svg">
<path d="M121.393 459.976C214.354 513.341 365.076 513.341 458.038 459.976C550.999 406.61 551.012 320.06 458.038 266.694C365.063 213.328 214.354 213.314 121.393 266.694C28.4314 320.074 28.4314 406.596 121.393 459.976Z" fill="#EBEBEB"/>
<path d="M485.381 327.565L471.821 319.085C471.821 319.085 468.497 287.837 470.704 263.641C473.818 229.624 494.237 188.737 518.584 198.319C542.932 207.901 507.403 242.626 499.519 271.457C491.635 300.288 485.381 327.565 485.381 327.565Z" fill="#02897A"/>
<path opacity="0.1" d="M485.381 327.565L471.821 319.085C471.821 319.085 468.497 287.837 470.704 263.641C473.818 229.624 494.237 188.737 518.584 198.319C542.932 207.901 507.403 242.626 499.519 271.457C491.635 300.288 485.381 327.565 485.381 327.565Z" fill="black"/>
<path d="M478.325 323.735C478.198 323.736 478.075 323.688 477.979 323.6C477.882 323.512 477.818 323.389 477.799 323.254C473.187 285.095 485.814 227.419 511.305 205.541C511.357 205.495 511.418 205.461 511.483 205.441C511.548 205.42 511.615 205.414 511.683 205.422C511.75 205.43 511.815 205.452 511.874 205.487C511.933 205.522 511.985 205.569 512.028 205.626C512.114 205.742 512.154 205.891 512.14 206.039C512.125 206.187 512.056 206.323 511.949 206.417C486.734 228.069 474.265 285.293 478.837 323.099C478.856 323.247 478.82 323.397 478.736 323.516C478.652 323.635 478.528 323.714 478.391 323.735H478.325Z" fill="white"/>
<path d="M492.621 333.6L482.976 327.593C482.976 327.593 481.334 306.154 491.11 280.107C499.611 257.494 520.726 238.612 531.343 242.57C541.959 246.527 541.697 254.625 536.52 263.119C531.343 271.613 499.847 291.865 492.621 333.6Z" fill="#02897A"/>
<path d="M486.642 334.151C486.574 334.147 486.506 334.129 486.445 334.097C486.383 334.065 486.328 334.02 486.282 333.965C486.237 333.909 486.202 333.845 486.181 333.775C486.159 333.705 486.151 333.631 486.156 333.557C489.336 280.191 514.432 253.946 529.516 249.947C529.652 249.912 529.795 249.936 529.915 250.012C530.035 250.088 530.123 250.212 530.16 250.357C530.192 250.501 530.17 250.653 530.098 250.78C530.027 250.907 529.912 250.998 529.779 251.035C513.893 255.275 490.19 283.682 487.22 333.628C487.215 333.703 487.196 333.777 487.164 333.845C487.132 333.912 487.088 333.972 487.034 334.021C486.98 334.07 486.918 334.106 486.85 334.129C486.783 334.151 486.712 334.159 486.642 334.151Z" fill="white"/>
<path d="M94.8248 331.72C94.8248 331.72 96.6249 300.387 79.7013 278.905C62.7778 257.423 40.743 257.508 33.4506 261.507C26.1582 265.507 21.2572 276.94 33.8054 285.123C46.3535 293.306 73.0397 309.686 77.4808 324.3L94.8248 331.72Z" fill="#02897A"/>
<path opacity="0.1" d="M94.8248 331.72C94.8248 331.72 96.6249 300.387 79.7013 278.905C62.7778 257.423 40.743 257.508 33.4506 261.507C26.1582 265.507 21.2572 276.94 33.8054 285.123C46.3535 293.306 73.0397 309.686 77.4808 324.3L94.8248 331.72Z" fill="black"/>
<path d="M86.8622 323.876C86.6996 323.874 86.5433 323.808 86.4224 323.691C86.3015 323.574 86.2243 323.414 86.2052 323.24C82.7233 288.572 50.5054 269.366 37.6682 267.189C37.5819 267.175 37.499 267.143 37.4243 267.095C37.3495 267.047 37.2844 266.983 37.2325 266.907C37.1807 266.832 37.1431 266.746 37.1221 266.655C37.101 266.564 37.0968 266.469 37.1098 266.377C37.1227 266.284 37.1525 266.195 37.1975 266.114C37.2425 266.034 37.3017 265.964 37.3719 265.908C37.442 265.852 37.5217 265.812 37.6064 265.789C37.691 265.767 37.779 265.762 37.8653 265.776C51.0047 267.995 83.9452 287.64 87.5192 323.085C87.5282 323.178 87.5201 323.272 87.4952 323.361C87.4703 323.451 87.4292 323.534 87.3742 323.606C87.3193 323.679 87.2515 323.738 87.1749 323.782C87.0983 323.826 87.0143 323.853 86.9279 323.862L86.8622 323.876Z" fill="white"/>
<path d="M80.5949 315.919C76.3508 305.517 71.5549 300.854 57.7586 303.341C43.9622 305.828 45.9331 305.447 29.0489 300.797C21.9274 298.847 13.9254 298.536 7.09295 301.843C1.32475 304.669 -2.98498 310.323 2.59927 316.343C8.87991 323.07 18.2483 325.374 25.1859 331.296C26.7598 332.493 28.011 334.117 28.8124 336.002C30.6388 341.005 26.986 346.644 28.0503 351.887C29.1146 357.131 34.239 359.929 39.048 360.268C43.857 360.607 48.6004 359.053 53.3963 358.459C58.1922 357.866 63.5793 358.459 66.8904 362.289C70.4381 366.345 70.5301 372.832 73.8281 377.143C78.7685 383.602 90.9093 385.397 97.479 381.383L114.679 370.713C126.044 354.234 108.109 341.175 98.7141 328.384C94.1547 322.152 83.1439 322.18 80.5949 315.919Z" fill="#02897A"/>
<path d="M104.022 360.763C103.91 360.766 103.8 360.736 103.703 360.676C103.605 360.616 103.525 360.529 103.47 360.424C83.8532 326.236 30.4415 308.938 11.547 307.525C11.375 307.51 11.2152 307.423 11.1021 307.283C10.989 307.143 10.9317 306.961 10.9426 306.775C10.9561 306.589 11.0362 306.416 11.1661 306.292C11.296 306.168 11.4655 306.103 11.639 306.111C30.7831 307.525 84.7073 325.078 104.587 359.717C104.675 359.879 104.701 360.072 104.659 360.254C104.618 360.436 104.512 360.593 104.364 360.693C104.256 360.744 104.14 360.768 104.022 360.763V360.763Z" fill="white"/>
<path d="M41.8862 344.652C41.7839 344.654 41.6825 344.63 41.591 344.58C41.4994 344.531 41.4203 344.459 41.3606 344.369C41.2561 344.219 41.2112 344.031 41.2359 343.845C41.2605 343.66 41.3527 343.492 41.492 343.38C42.1753 342.829 58.4682 329.968 74.3406 329.713C74.4262 329.711 74.5114 329.728 74.591 329.762C74.6706 329.796 74.7432 329.847 74.8044 329.911C74.8655 329.976 74.9141 330.053 74.9473 330.137C74.9805 330.222 74.9976 330.314 74.9976 330.406C74.9993 330.499 74.984 330.591 74.9526 330.677C74.9212 330.764 74.8743 330.843 74.8145 330.91C74.7547 330.977 74.6832 331.03 74.6042 331.067C74.5251 331.105 74.44 331.125 74.3537 331.127C58.9412 331.367 42.4775 344.383 42.3067 344.51C42.188 344.613 42.0379 344.663 41.8862 344.652V344.652Z" fill="white"/>
<path d="M102.801 372.776C102.941 374.831 103.529 376.822 104.518 378.587C105.506 380.352 106.867 381.843 108.49 382.937L267.91 481.938C269.674 482.901 271.623 483.402 273.6 483.402C275.577 483.402 277.526 482.901 279.289 481.938L497.404 346.474C499.123 345.498 500.562 344.036 501.566 342.246C502.569 340.455 503.1 338.404 503.1 336.313C503.1 334.222 502.569 332.171 501.566 330.38C500.562 328.589 499.123 327.127 497.404 326.151L337.996 227.221C336.233 226.259 334.284 225.757 332.307 225.757C330.33 225.757 328.381 226.259 326.617 227.221L108.49 362.643C106.87 363.734 105.511 365.22 104.523 366.98C103.535 368.74 102.945 370.726 102.801 372.776V372.776Z" fill="#37474F"/>
<path d="M168.577 325.303L108.49 362.642C106.771 363.618 105.332 365.08 104.328 366.871C103.324 368.661 102.794 370.713 102.794 372.804C102.794 374.895 103.324 376.946 104.328 378.737C105.332 380.527 106.771 381.989 108.49 382.965L267.911 481.966C269.664 482.951 271.623 483.438 273.6 483.38V325.303H168.577Z" fill="#263238"/>
<path d="M97.4528 362.84C95.8693 361.679 94.5615 360.134 93.6349 358.33C92.7083 356.526 92.1887 354.513 92.1182 352.453V147.822C92.224 145.698 92.7944 143.632 93.783 141.79C94.7716 139.948 96.1505 138.383 97.8075 137.223L315.922 1.75851C317.568 0.647726 319.465 0.0404573 321.408 0.00195231C323.351 -0.0365527 325.267 0.495155 326.951 1.53995C328.634 2.58475 330.021 4.10316 330.962 5.932C331.904 7.76085 332.364 9.83101 332.294 11.9201V216.565C332.186 218.688 331.614 220.754 330.626 222.596C329.638 224.437 328.26 226.002 326.604 227.164L108.49 362.643C106.794 363.605 104.911 364.124 102.993 364.158C101.076 364.193 99.1779 363.741 97.4528 362.84V362.84Z" fill="#455A64"/>
<path d="M118.818 157.334L93.787 141.787C92.7902 143.622 92.2431 145.698 92.1971 147.822V352.453C92.2677 354.513 92.7872 356.526 93.7139 358.33C94.6405 360.134 95.9482 361.679 97.5317 362.84C99.2572 363.735 101.154 364.18 103.069 364.141C104.984 364.101 106.863 363.578 108.556 362.614L133.442 347.167L118.818 157.334Z" fill="#263238"/>
<path d="M102.801 154.464V359.081C102.801 362.981 105.35 364.564 108.49 362.614L326.604 227.164C328.26 226.002 329.638 224.437 330.626 222.595C331.614 220.754 332.186 218.688 332.294 216.564V11.9339C332.294 8.03323 329.745 6.45034 326.604 8.40068L108.49 143.865C106.833 145.025 105.454 146.59 104.465 148.432C103.477 150.274 102.906 152.341 102.801 154.464V154.464Z" fill="#37474F"/>
<path d="M108.49 369.708L267.91 468.639C269.674 469.601 271.623 470.102 273.6 470.102C275.577 470.102 277.526 469.601 279.289 468.639L497.404 333.175C500.557 331.224 500.557 328.059 497.404 326.108L337.996 227.178C336.233 226.216 334.284 225.714 332.307 225.714C330.33 225.714 328.38 226.216 326.617 227.178L108.49 362.642C105.336 364.564 105.336 367.73 108.49 369.708Z" fill="#455A64"/>
<path d="M111.552 155.214L323.556 23.5655C325.435 22.3925 326.972 23.3394 326.972 25.6855V202.813C326.906 204.087 326.562 205.326 325.969 206.431C325.376 207.536 324.549 208.475 323.556 209.173L111.552 340.821C109.659 341.994 108.135 341.047 108.135 338.701V161.573C108.198 160.299 108.541 159.058 109.134 157.953C109.728 156.848 110.556 155.909 111.552 155.214V155.214Z" fill="white"/>
<path d="M126.99 364.381L329.456 238.598C330.337 238.117 331.312 237.867 332.3 237.867C333.289 237.867 334.263 238.117 335.145 238.598L345.512 245.028C345.855 245.153 346.153 245.391 346.364 245.708C346.575 246.025 346.689 246.405 346.689 246.795C346.689 247.185 346.575 247.565 346.364 247.881C346.153 248.198 345.855 248.436 345.512 248.561L143.007 374.33C142.125 374.811 141.151 375.061 140.162 375.061C139.174 375.061 138.199 374.811 137.318 374.33L126.99 367.914C126.647 367.789 126.349 367.551 126.138 367.234C125.927 366.917 125.813 366.537 125.813 366.147C125.813 365.757 125.927 365.377 126.138 365.06C126.349 364.744 126.647 364.506 126.99 364.381V364.381Z" fill="#263238"/>
<path d="M153.689 381.015L356.142 255.232C357.026 254.751 358.002 254.501 358.993 254.501C359.983 254.501 360.96 254.751 361.844 255.232L425.531 294.804C425.874 294.93 426.172 295.167 426.383 295.484C426.594 295.801 426.708 296.181 426.708 296.571C426.708 296.961 426.594 297.341 426.383 297.658C426.172 297.974 425.874 298.212 425.531 298.337L223.302 423.866C222.418 424.347 221.441 424.597 220.451 424.597C219.46 424.597 218.484 424.347 217.6 423.866L153.689 384.478C153.363 384.344 153.081 384.107 152.883 383.798C152.684 383.489 152.578 383.122 152.578 382.746C152.578 382.371 152.684 382.004 152.883 381.694C153.081 381.385 153.363 381.148 153.689 381.015V381.015Z" fill="#263238"/>
<path d="M335.171 311.764L341.517 307.82C341.78 307.651 341.767 307.382 341.517 307.199L334.186 302.648C334.029 302.561 333.856 302.516 333.68 302.516C333.504 302.516 333.33 302.561 333.174 302.648L326.841 306.591C326.565 306.761 326.578 307.029 326.841 307.213L334.172 311.764C334.327 311.848 334.498 311.892 334.672 311.892C334.845 311.892 335.016 311.848 335.171 311.764ZM322.662 296.217L316.329 300.16C316.053 300.316 316.066 300.599 316.329 300.782L323.661 305.333C323.817 305.42 323.991 305.465 324.167 305.465C324.343 305.465 324.516 305.42 324.673 305.333L331.019 301.39C331.282 301.22 331.269 300.938 331.019 300.768L323.674 296.217C323.518 296.131 323.344 296.085 323.168 296.085C322.992 296.085 322.819 296.131 322.662 296.217ZM302.191 308.937L291.456 315.594C291.193 315.763 291.207 316.046 291.456 316.23L298.788 320.78C298.944 320.867 299.118 320.912 299.294 320.912C299.47 320.912 299.643 320.867 299.8 320.78L310.522 314.124C310.797 313.954 310.771 313.672 310.522 313.502L303.19 308.937C303.036 308.85 302.864 308.805 302.69 308.805C302.517 308.805 302.345 308.85 302.191 308.937ZM313.399 301.969L307.066 305.913C306.79 306.082 306.803 306.365 307.066 306.534L314.398 311.085C314.554 311.172 314.727 311.217 314.903 311.217C315.079 311.217 315.253 311.172 315.409 311.085L321.756 307.142C322.018 306.973 322.005 306.704 321.756 306.52L314.411 301.871C314.254 301.784 314.081 301.739 313.905 301.739C313.729 301.739 313.555 301.784 313.399 301.871V301.969ZM288.526 317.417L282.193 321.346C281.917 321.515 281.943 321.798 282.193 321.982L289.525 326.533C289.68 326.616 289.851 326.659 290.024 326.659C290.197 326.659 290.368 326.616 290.523 326.533L296.87 322.589C297.132 322.42 297.119 322.137 296.87 321.968L289.538 317.417C289.381 317.33 289.208 317.285 289.032 317.285C288.856 317.285 288.683 317.33 288.526 317.417V317.417ZM279.329 323.169L272.995 327.112C272.719 327.267 272.746 327.55 272.995 327.734L280.327 332.285C280.484 332.371 280.657 332.417 280.833 332.417C281.009 332.417 281.182 332.371 281.339 332.285L287.685 328.342C287.948 328.172 287.935 327.889 287.685 327.72L280.275 323.07C280.118 322.983 279.945 322.938 279.769 322.938C279.593 322.938 279.419 322.983 279.263 323.07L279.329 323.169ZM308.17 341.683L314.503 337.74C314.779 337.57 314.752 337.302 314.503 337.118L307.171 332.567C307.017 332.481 306.846 332.435 306.672 332.435C306.498 332.435 306.326 332.481 306.172 332.567L299.826 336.51C299.563 336.68 299.576 336.948 299.826 337.132L307.158 341.683C307.31 341.748 307.475 341.775 307.638 341.762C307.802 341.75 307.961 341.699 308.104 341.612L308.17 341.683ZM298.893 347.435L305.239 343.492C305.502 343.337 305.489 343.054 305.239 342.87L297.908 338.319C297.751 338.233 297.578 338.187 297.402 338.187C297.226 338.187 297.052 338.233 296.896 338.319L290.563 342.262C290.287 342.432 290.313 342.715 290.563 342.884L297.895 347.435C298.045 347.499 298.207 347.527 298.368 347.514C298.53 347.502 298.687 347.451 298.827 347.364L298.893 347.435ZM289.63 353.187L295.976 349.258C296.239 349.089 296.226 348.806 295.976 348.622L288.644 344.071C288.487 343.988 288.314 343.944 288.138 343.944C287.963 343.944 287.79 343.988 287.633 344.071L281.299 348.015C281.024 348.184 281.05 348.467 281.299 348.636L288.618 353.187C288.771 353.252 288.935 353.279 289.099 353.267C289.262 353.254 289.421 353.203 289.564 353.117L289.63 353.187ZM280.432 358.939L286.779 355.01C287.041 354.841 287.028 354.558 286.779 354.374L279.447 349.824C279.29 349.737 279.117 349.691 278.941 349.691C278.765 349.691 278.591 349.737 278.435 349.824L272.102 353.752C271.826 353.922 271.839 354.205 272.102 354.388L279.434 358.939C279.72 359.04 280.032 359.014 280.301 358.869L280.432 358.939ZM326.039 317.615L332.385 313.672C332.648 313.516 332.635 313.233 332.385 313.05L325.054 308.499C324.896 308.415 324.723 308.372 324.548 308.372C324.372 308.372 324.199 308.415 324.042 308.499L317.709 312.442C317.433 312.612 317.446 312.894 317.709 313.064L325.041 317.615C325.182 317.667 325.332 317.687 325.481 317.675C325.63 317.663 325.775 317.618 325.908 317.544L326.039 317.615ZM317.499 335.987L331.637 327.197C331.899 327.041 331.886 326.759 331.637 326.575L313.833 315.523C313.676 315.436 313.503 315.391 313.327 315.391C313.151 315.391 312.977 315.436 312.821 315.523L305.515 320.074C305.239 320.229 305.266 320.512 305.515 320.696L314.949 326.547C315.239 326.73 315.252 327.013 314.949 327.183L308.997 330.659C308.735 330.815 308.748 331.097 308.997 331.281L316.355 335.79C316.507 335.887 316.677 335.945 316.853 335.957C317.029 335.97 317.206 335.936 317.367 335.86L317.499 335.987ZM270.131 328.921L263.798 332.864C263.522 333.034 263.535 333.302 263.798 333.486L271.13 338.037C271.286 338.123 271.459 338.169 271.635 338.169C271.811 338.169 271.985 338.123 272.141 338.037L278.488 334.094C278.75 333.924 278.737 333.655 278.488 333.472L271.156 328.921C270.988 328.795 270.791 328.722 270.587 328.709C270.383 328.697 270.179 328.746 270 328.85L270.131 328.921ZM260.933 334.673L254.39 338.616C254.127 338.786 254.14 339.068 254.39 339.238L261.722 343.789C261.878 343.876 262.052 343.921 262.228 343.921C262.404 343.921 262.577 343.876 262.733 343.789L269.08 339.846C269.343 339.69 269.329 339.408 269.08 339.224L261.695 334.631C261.548 334.549 261.385 334.503 261.219 334.499C261.053 334.494 260.888 334.529 260.736 334.602L260.933 334.673ZM214.394 399.119C214.55 399.206 214.723 399.251 214.899 399.251C215.075 399.251 215.249 399.206 215.405 399.119L221.752 395.176C222.014 395.021 222.001 394.738 221.752 394.554L214.394 390.032C214.237 389.945 214.064 389.9 213.888 389.9C213.712 389.9 213.538 389.945 213.382 390.032L207.049 393.975C206.773 394.144 206.786 394.427 207.049 394.597L214.394 399.119ZM186.577 380.633L180.231 384.576C179.968 384.746 179.981 385.014 180.231 385.198L187.563 389.749C187.719 389.836 187.893 389.881 188.069 389.881C188.245 389.881 188.418 389.836 188.575 389.749L194.921 385.806C195.184 385.636 195.171 385.368 194.921 385.184L187.589 380.633C187.438 380.553 187.271 380.512 187.103 380.512C186.934 380.512 186.768 380.553 186.617 380.633H186.577ZM201.491 394.13C201.647 394.217 201.82 394.262 201.996 394.262C202.172 394.262 202.346 394.217 202.502 394.13L208.836 390.187C209.111 390.032 209.085 389.749 208.836 389.565L201.517 385.014C201.36 384.928 201.187 384.882 201.011 384.882C200.835 384.882 200.662 384.928 200.505 385.014L194.159 388.958C193.896 389.127 193.909 389.41 194.159 389.579L201.491 394.13ZM230.752 402.61L237.098 398.667C237.361 398.497 237.348 398.229 237.098 398.045L229.767 393.494C229.61 393.407 229.437 393.362 229.261 393.362C229.085 393.362 228.911 393.407 228.755 393.494L222.422 397.437C222.146 397.593 222.172 397.875 222.422 398.059L229.74 402.61C229.901 402.706 230.081 402.758 230.264 402.76C230.448 402.763 230.629 402.716 230.792 402.624L230.752 402.61ZM220.477 408.263C220.633 408.35 220.807 408.395 220.983 408.395C221.159 408.395 221.332 408.35 221.489 408.263L227.835 404.32C228.098 404.165 228.085 403.882 227.835 403.698L220.503 399.147C220.347 399.061 220.173 399.015 219.997 399.015C219.821 399.015 219.648 399.061 219.492 399.147L213.158 403.09C212.882 403.26 212.896 403.543 213.158 403.712L220.477 408.263ZM195.841 374.796L189.507 378.739C189.232 378.895 189.245 379.178 189.507 379.361L196.839 383.912C196.996 383.999 197.169 384.044 197.345 384.044C197.521 384.044 197.695 383.999 197.851 383.912L204.197 379.969C204.46 379.799 204.447 379.517 204.197 379.347L196.866 374.796C196.706 374.727 196.535 374.699 196.363 374.713C196.192 374.728 196.027 374.786 195.88 374.881L195.841 374.796ZM242.17 346.036L235.824 349.965C235.561 350.134 235.574 350.417 235.824 350.587L243.156 355.152C243.313 355.235 243.486 355.279 243.662 355.279C243.837 355.279 244.01 355.235 244.167 355.152L250.501 351.223C250.777 351.053 250.763 350.77 250.501 350.587L243.169 346.036C243.013 345.971 242.846 345.945 242.68 345.96C242.514 345.975 242.353 346.03 242.21 346.121L242.17 346.036ZM205.196 369.129L198.863 373.058C198.587 373.228 198.6 373.51 198.863 373.694L206.195 378.245C206.352 378.328 206.525 378.372 206.7 378.372C206.876 378.372 207.049 378.328 207.206 378.245L213.553 374.302C213.815 374.132 213.802 373.849 213.553 373.68L206.221 369.115C206.061 369.031 205.885 368.989 205.707 368.992C205.529 368.994 205.354 369.041 205.196 369.129V369.129ZM251.525 340.354L245.127 344.269C244.864 344.439 244.877 344.722 245.127 344.891L252.458 349.442C252.615 349.529 252.788 349.574 252.964 349.574C253.14 349.574 253.314 349.529 253.47 349.442L259.803 345.513C260.079 345.343 260.066 345.061 259.803 344.877L252.498 340.383C252.341 340.293 252.166 340.243 251.988 340.238C251.811 340.233 251.634 340.273 251.473 340.354H251.525ZM232.999 351.873L226.653 355.802C226.39 355.971 226.403 356.254 226.653 356.438L233.984 360.989C234.142 361.072 234.315 361.115 234.49 361.115C234.666 361.115 234.839 361.072 234.996 360.989L241.329 357.06C241.605 356.89 241.579 356.607 241.329 356.424L234.011 351.873C233.847 351.78 233.664 351.731 233.479 351.731C233.293 351.731 233.11 351.78 232.946 351.873H232.999ZM223.723 357.625L217.389 361.554C217.113 361.723 217.14 362.006 217.389 362.19L224.721 366.741C224.878 366.824 225.052 366.868 225.227 366.868C225.402 366.868 225.576 366.824 225.733 366.741L232.066 362.812C232.329 362.642 232.316 362.359 232.066 362.176L224.734 357.625C224.57 357.532 224.387 357.484 224.202 357.484C224.017 357.484 223.834 357.532 223.67 357.625H223.723ZM214.394 363.377L208.06 367.306C207.784 367.476 207.811 367.758 208.06 367.942L215.379 372.493C215.535 372.579 215.709 372.625 215.885 372.625C216.061 372.625 216.234 372.579 216.391 372.493L222.737 368.564C223 368.394 222.987 368.112 222.737 367.928L215.405 363.377C215.248 363.293 215.075 363.25 214.899 363.25C214.724 363.25 214.551 363.293 214.394 363.377ZM261.761 370.443L268.094 366.514C268.37 366.345 268.357 366.062 268.094 365.879L260.749 361.229C260.592 361.145 260.419 361.102 260.244 361.102C260.068 361.102 259.895 361.145 259.738 361.229L253.391 365.158C253.129 365.327 253.142 365.61 253.391 365.794L260.723 370.345C260.882 370.443 261.062 370.497 261.245 370.502C261.429 370.507 261.611 370.462 261.774 370.373L261.761 370.443ZM343.16 283.498L336.813 287.441C336.551 287.61 336.564 287.879 336.813 288.063L344.145 292.614C344.302 292.7 344.475 292.746 344.651 292.746C344.827 292.746 345.001 292.7 345.157 292.614L351.49 288.67C351.766 288.501 351.753 288.232 351.49 288.049L344.158 283.498C344.004 283.413 343.833 283.369 343.659 283.369C343.486 283.369 343.315 283.413 343.16 283.498ZM331.939 290.465L325.606 294.408C325.33 294.564 325.356 294.846 325.606 295.03L332.924 299.581C333.082 299.665 333.255 299.708 333.43 299.708C333.606 299.708 333.779 299.665 333.936 299.581L340.282 295.638C340.545 295.468 340.532 295.186 340.282 295.016L332.951 290.465C332.798 290.365 332.625 290.306 332.446 290.294C332.268 290.282 332.089 290.316 331.926 290.395L331.939 290.465ZM352.423 277.746L346.09 281.689C345.814 281.844 345.827 282.127 346.09 282.311L353.422 286.861C353.578 286.948 353.752 286.993 353.928 286.993C354.104 286.993 354.277 286.948 354.433 286.861L360.78 282.918C361.043 282.749 361.029 282.466 360.78 282.296L353.448 277.746C353.288 277.633 353.103 277.567 352.911 277.555C352.72 277.543 352.529 277.584 352.357 277.675L352.423 277.746ZM304.464 330.942L310.811 326.999C311.073 326.829 311.06 326.547 310.811 326.377L303.479 321.826C303.322 321.739 303.149 321.694 302.973 321.694C302.797 321.694 302.623 321.739 302.467 321.826L296.134 325.769C295.858 325.925 295.871 326.207 296.134 326.391L303.466 330.942C303.624 331.013 303.795 331.044 303.966 331.032C304.137 331.02 304.303 330.965 304.451 330.871L304.464 330.942ZM362.698 272.022C362.542 271.935 362.368 271.89 362.192 271.89C362.016 271.89 361.843 271.935 361.686 272.022L355.353 275.965C355.077 276.12 355.09 276.403 355.353 276.587L362.685 281.138C362.842 281.221 363.015 281.265 363.191 281.265C363.366 281.265 363.539 281.221 363.697 281.138L370.043 277.194C370.306 277.025 370.293 276.742 370.043 276.573L362.698 272.022ZM271.038 364.621L277.384 360.692C277.647 360.522 277.634 360.24 277.384 360.056L270.013 355.576C269.856 355.489 269.683 355.444 269.507 355.444C269.331 355.444 269.157 355.489 269.001 355.576L262.668 359.505C262.392 359.674 262.405 359.957 262.668 360.141L270 364.691C270.165 364.769 270.346 364.803 270.526 364.79C270.707 364.778 270.882 364.72 271.038 364.621V364.621ZM384.654 294.069L391 290.126C391.263 289.971 391.25 289.688 391 289.504L383.629 284.911C383.473 284.824 383.299 284.779 383.123 284.779C382.947 284.779 382.774 284.824 382.617 284.911L376.284 288.854C376.008 289.024 376.021 289.306 376.284 289.476L383.616 294.027C383.773 294.125 383.949 294.18 384.13 294.188C384.311 294.195 384.491 294.154 384.654 294.069V294.069ZM364.945 293.32L371.291 289.377C371.554 289.207 371.541 288.939 371.291 288.755L363.96 284.204C363.803 284.118 363.63 284.072 363.454 284.072C363.278 284.072 363.104 284.118 362.948 284.204L356.615 288.148C356.339 288.317 356.352 288.586 356.615 288.769L363.946 293.32C364.093 293.411 364.256 293.465 364.425 293.477C364.593 293.489 364.762 293.46 364.919 293.391L364.945 293.32ZM373.183 278.452C373.027 278.366 372.854 278.32 372.678 278.32C372.502 278.32 372.328 278.366 372.172 278.452L365.838 282.395C365.563 282.551 365.576 282.834 365.838 283.017L373.17 287.568C373.327 287.655 373.5 287.7 373.676 287.7C373.852 287.7 374.026 287.655 374.182 287.568L380.528 283.625C380.791 283.455 380.778 283.173 380.528 283.003L373.183 278.452ZM375.141 277.237L392.932 288.289C393.088 288.376 393.262 288.421 393.438 288.421C393.614 288.421 393.787 288.376 393.944 288.289L400.29 284.346C400.553 284.176 400.54 283.908 400.29 283.724L382.486 272.672C382.33 272.585 382.156 272.54 381.98 272.54C381.804 272.54 381.631 272.585 381.474 272.672L375.141 276.615C374.8 276.771 374.826 277.053 375.115 277.237H375.141ZM353.645 289.957L347.299 293.9C347.036 294.069 347.049 294.352 347.299 294.521L354.631 299.072C354.787 299.159 354.96 299.204 355.136 299.204C355.312 299.204 355.486 299.159 355.642 299.072L361.975 295.129C362.251 294.974 362.238 294.691 361.975 294.507L354.644 289.957C354.494 289.872 354.329 289.826 354.161 289.821C353.992 289.816 353.825 289.853 353.671 289.928L353.645 289.957ZM283.914 333.26L277.542 337.203C277.279 337.372 277.292 337.655 277.542 337.825L284.873 342.375C285.03 342.462 285.203 342.508 285.379 342.508C285.555 342.508 285.729 342.462 285.885 342.375L292.218 338.432C292.494 338.277 292.481 337.994 292.218 337.811L284.886 333.26C284.734 333.171 284.564 333.122 284.39 333.117C284.217 333.112 284.045 333.151 283.888 333.231L283.914 333.26ZM374.405 299.821C374.562 299.908 374.735 299.953 374.911 299.953C375.087 299.953 375.261 299.908 375.417 299.821L381.763 295.878C382.026 295.723 382.013 295.44 381.763 295.256L374.432 290.706C374.274 290.622 374.101 290.579 373.926 290.579C373.75 290.579 373.577 290.622 373.42 290.706L367.087 294.649C366.811 294.818 366.824 295.101 367.087 295.27L374.405 299.821ZM293.177 327.508L286.844 331.451C286.568 331.62 286.581 331.889 286.844 332.073L294.176 336.623C294.332 336.71 294.506 336.755 294.682 336.755C294.858 336.755 295.031 336.71 295.188 336.623L301.534 332.68C301.797 332.511 301.784 332.242 301.534 332.058L294.202 327.508C294.043 327.409 293.864 327.355 293.68 327.35C293.497 327.345 293.315 327.39 293.151 327.479L293.177 327.508ZM223.723 393.395C223.879 393.482 224.052 393.527 224.228 393.527C224.404 393.527 224.578 393.482 224.734 393.395L231.081 389.452C231.343 389.283 231.33 389.014 231.081 388.83L223.749 384.28C223.592 384.193 223.419 384.148 223.243 384.148C223.067 384.148 222.893 384.193 222.737 384.28L216.404 388.223C216.128 388.392 216.154 388.661 216.404 388.845L223.723 393.395ZM209.795 379.262L203.448 383.205C203.186 383.375 203.199 383.644 203.448 383.827L210.78 388.378C210.937 388.465 211.11 388.51 211.286 388.51C211.462 388.51 211.635 388.465 211.792 388.378L218.125 384.435C218.401 384.265 218.388 383.997 218.125 383.813L210.793 379.262C210.635 379.173 210.459 379.127 210.281 379.127C210.102 379.127 209.927 379.173 209.768 379.262H209.795ZM234.011 387.643L240.344 383.7C240.607 383.531 240.594 383.248 240.344 383.078L233.012 378.527C232.856 378.441 232.682 378.395 232.506 378.395C232.33 378.395 232.157 378.441 232 378.527L225.601 382.428C225.339 382.584 225.352 382.866 225.601 383.05L232.933 387.601C233.091 387.701 233.27 387.758 233.454 387.765C233.637 387.773 233.82 387.731 233.984 387.643H234.011ZM243.274 381.891L249.607 377.948C249.883 377.778 249.857 377.496 249.607 377.326L242.288 372.775C242.132 372.689 241.959 372.643 241.783 372.643C241.607 372.643 241.433 372.689 241.277 372.775L234.93 376.704C234.668 376.874 234.681 377.157 234.93 377.34L242.262 381.891C242.423 381.979 242.601 382.025 242.781 382.025C242.962 382.025 243.139 381.979 243.3 381.891H243.274ZM252.472 376.125L258.805 372.196C259.081 372.026 259.068 371.744 258.805 371.574L251.473 367.009C251.316 366.926 251.143 366.882 250.967 366.882C250.792 366.882 250.619 366.926 250.461 367.009L244.115 370.938C243.852 371.108 243.865 371.39 244.115 371.574L251.447 376.125C251.608 376.219 251.789 376.268 251.972 376.268C252.156 376.268 252.336 376.219 252.498 376.125H252.472ZM218.992 373.51L212.646 377.453C212.383 377.609 212.396 377.892 212.646 378.075L219.978 382.626C220.134 382.713 220.308 382.758 220.484 382.758C220.66 382.758 220.833 382.713 220.99 382.626L227.336 378.683C227.599 378.513 227.585 378.231 227.336 378.061L220.004 373.51C219.853 373.43 219.686 373.389 219.518 373.389C219.349 373.389 219.183 373.43 219.032 373.51H218.992ZM228.256 367.758L221.922 371.687C221.646 371.857 221.66 372.139 221.922 372.323L229.254 376.874C229.412 376.957 229.585 377.001 229.76 377.001C229.936 377.001 230.109 376.957 230.266 376.874L236.731 372.959C236.993 372.789 236.98 372.507 236.731 372.337L229.399 367.786C229.233 367.678 229.044 367.618 228.85 367.613C228.657 367.608 228.465 367.658 228.295 367.758H228.256ZM265.322 344.75L259.068 348.679C258.805 348.848 258.818 349.131 259.068 349.315L266.399 353.866C266.557 353.949 266.73 353.992 266.905 353.992C267.081 353.992 267.254 353.949 267.411 353.866L273.744 349.937C274.02 349.767 273.994 349.484 273.744 349.301L266.426 344.75C266.263 344.653 266.08 344.603 265.893 344.603C265.707 344.603 265.524 344.653 265.361 344.75H265.322ZM256.045 350.502L249.712 354.431C249.449 354.6 249.463 354.883 249.712 355.067L257.044 359.618C257.201 359.701 257.374 359.745 257.55 359.745C257.725 359.745 257.898 359.701 258.056 359.618L264.389 355.689C264.665 355.519 264.639 355.236 264.389 355.053L257.057 350.502C256.905 350.425 256.739 350.385 256.571 350.385C256.403 350.385 256.237 350.425 256.085 350.502H256.045ZM274.585 338.984L268.265 342.927C268.002 343.096 268.015 343.379 268.265 343.549L275.597 348.113C275.754 348.197 275.927 348.24 276.103 348.24C276.278 348.24 276.451 348.197 276.609 348.113L282.942 344.17C283.218 344.015 283.205 343.732 282.942 343.549L275.61 338.998C275.457 338.916 275.289 338.873 275.119 338.871C274.948 338.868 274.779 338.907 274.625 338.984H274.585ZM237.519 362.006L231.186 365.935C230.91 366.105 230.923 366.387 231.186 366.571L238.517 371.122C238.675 371.205 238.848 371.249 239.023 371.249C239.199 371.249 239.372 371.205 239.529 371.122L245.876 367.179C246.138 367.009 246.125 366.726 245.876 366.557L238.544 361.992C238.389 361.915 238.22 361.876 238.05 361.879C237.879 361.881 237.711 361.925 237.558 362.006H237.519ZM246.782 356.254L240.449 360.183C240.173 360.353 240.199 360.635 240.449 360.819L247.781 365.37C247.935 365.456 248.106 365.502 248.28 365.502C248.454 365.502 248.625 365.456 248.779 365.37L255.126 361.441C255.388 361.271 255.375 360.989 255.126 360.805L247.794 356.254C247.642 356.177 247.476 356.137 247.308 356.137C247.14 356.137 246.974 356.177 246.822 356.254H246.782ZM240.029 396.872L246.362 392.929C246.625 392.759 246.611 392.477 246.362 392.307L239.03 387.756C238.874 387.669 238.7 387.624 238.524 387.624C238.348 387.624 238.175 387.669 238.018 387.756L231.685 391.699C231.409 391.855 231.435 392.137 231.685 392.321L239.017 396.872C239.178 396.966 239.359 397.015 239.542 397.015C239.726 397.015 239.907 396.966 240.068 396.872H240.029ZM185.697 390.908L178.365 386.357C178.209 386.27 178.035 386.225 177.859 386.225C177.683 386.225 177.51 386.27 177.353 386.357L171.033 390.328C170.771 390.498 170.784 390.767 171.033 390.95L178.365 395.501C178.522 395.588 178.695 395.633 178.871 395.633C179.047 395.633 179.221 395.588 179.377 395.501L185.71 391.558C185.999 391.431 185.986 391.148 185.697 390.908ZM199.572 395.289L192.24 390.738C192.085 390.655 191.914 390.612 191.741 390.612C191.568 390.612 191.397 390.655 191.242 390.738L181.545 396.83C181.282 396.999 181.295 397.282 181.545 397.451L188.877 402.002C189.033 402.089 189.207 402.134 189.383 402.134C189.559 402.134 189.732 402.089 189.889 402.002L199.638 395.953C199.94 395.812 199.861 395.529 199.572 395.346V395.289ZM174.45 382.103L167.092 377.609C166.935 377.522 166.762 377.477 166.586 377.477C166.41 377.477 166.236 377.522 166.08 377.609L158.301 382.428C158.039 382.598 158.052 382.88 158.301 383.064L165.633 387.615C165.79 387.702 165.963 387.747 166.139 387.747C166.315 387.747 166.488 387.702 166.645 387.615L174.437 382.781C174.752 382.626 174.739 382.343 174.45 382.16V382.103ZM180.428 378.386C180.585 378.473 180.758 378.518 180.934 378.518C181.11 378.518 181.283 378.473 181.44 378.386L187.773 374.443C188.049 374.288 188.036 374.005 187.773 373.821L180.441 369.27C180.285 369.184 180.111 369.138 179.935 369.138C179.759 369.138 179.586 369.184 179.43 369.27L173.083 373.214C172.82 373.383 172.834 373.666 173.083 373.835L180.428 378.386ZM212.488 400.278L205.196 395.784C205.039 395.7 204.866 395.657 204.69 395.657C204.515 395.657 204.342 395.7 204.184 395.784L191.991 403.359C191.728 403.529 191.741 403.811 191.991 403.981L199.323 408.546C199.48 408.629 199.653 408.673 199.828 408.673C200.004 408.673 200.177 408.629 200.334 408.546L212.528 400.971C212.791 400.801 212.777 400.518 212.488 400.335V400.278ZM218.572 409.507L211.24 405.041C211.084 404.954 210.91 404.909 210.734 404.909C210.558 404.909 210.385 404.954 210.228 405.041L202.424 409.888C202.161 410.058 202.174 410.341 202.424 410.524L209.755 415.075C209.913 415.159 210.086 415.202 210.261 415.202C210.437 415.202 210.61 415.159 210.767 415.075L218.572 410.228C218.874 410.03 218.861 409.747 218.572 409.563V409.507ZM249.318 335.606C249.475 335.693 249.648 335.738 249.824 335.738C250 335.738 250.173 335.693 250.33 335.606L256.663 331.677C256.939 331.507 256.913 331.225 256.663 331.041L249.331 326.49C249.174 326.407 249.001 326.363 248.825 326.363C248.65 326.363 248.477 326.407 248.319 326.49L241.986 330.49C241.724 330.659 241.737 330.942 241.986 331.112L249.318 335.606ZM230.778 347.124C230.936 347.208 231.109 347.251 231.284 347.251C231.46 347.251 231.633 347.208 231.79 347.124L238.136 343.195C238.399 343.026 238.386 342.743 238.136 342.559L230.805 338.008C230.647 337.925 230.474 337.881 230.299 337.881C230.123 337.881 229.95 337.925 229.793 338.008L223.46 341.937C223.184 342.107 223.21 342.39 223.46 342.573L230.778 347.124ZM189.691 372.691C189.848 372.777 190.021 372.823 190.197 372.823C190.373 372.823 190.547 372.777 190.703 372.691L197.036 368.748C197.312 368.578 197.299 368.309 197.036 368.126L189.705 363.575C189.548 363.488 189.375 363.443 189.199 363.443C189.023 363.443 188.849 363.488 188.693 363.575L182.346 367.518C182.084 367.688 182.097 367.956 182.346 368.14L189.691 372.691ZM240.055 341.443C240.21 341.526 240.381 341.569 240.554 341.569C240.727 341.569 240.898 341.526 241.053 341.443L247.4 337.514C247.663 337.344 247.649 337.061 247.4 336.878L240.068 332.327C239.912 332.24 239.738 332.195 239.562 332.195C239.386 332.195 239.213 332.24 239.056 332.327L232.723 336.256C232.447 336.426 232.473 336.708 232.723 336.892L240.055 341.443ZM221.515 352.947C221.671 353.034 221.845 353.079 222.021 353.079C222.197 353.079 222.37 353.034 222.527 352.947L228.873 349.018C229.136 348.848 229.123 348.566 228.873 348.382L221.541 343.831C221.384 343.748 221.211 343.704 221.035 343.704C220.86 343.704 220.687 343.748 220.53 343.831L214.196 347.76C213.921 347.93 213.934 348.212 214.196 348.396L221.515 352.947ZM223.657 410.312C223.499 410.229 223.326 410.185 223.151 410.185C222.975 410.185 222.802 410.229 222.645 410.312L212.896 416.347C212.633 416.517 212.646 416.799 212.896 416.983L220.227 421.534C220.384 421.621 220.557 421.666 220.733 421.666C220.909 421.666 221.083 421.621 221.239 421.534L230.989 415.485C231.265 415.315 231.238 415.033 230.989 414.849L223.657 410.312ZM208.218 361.229C208.375 361.312 208.548 361.356 208.724 361.356C208.899 361.356 209.072 361.312 209.23 361.229L215.576 357.286C215.839 357.116 215.826 356.833 215.576 356.664L208.244 352.113C208.088 352.026 207.914 351.981 207.738 351.981C207.562 351.981 207.389 352.026 207.233 352.113L200.899 356.056C200.623 356.212 200.637 356.494 200.899 356.678L208.218 361.229ZM198.955 366.882C199.111 366.969 199.285 367.014 199.461 367.014C199.637 367.014 199.81 366.969 199.966 366.882L206.313 362.939C206.576 362.769 206.562 362.487 206.313 362.317L198.981 357.766C198.825 357.679 198.651 357.634 198.475 357.634C198.299 357.634 198.126 357.679 197.969 357.766L191.636 361.709C191.36 361.865 191.373 362.147 191.636 362.331L198.955 366.882ZM395.31 303.708C395.154 303.621 394.98 303.576 394.804 303.576C394.628 303.576 394.455 303.621 394.298 303.708L378.636 313.375C378.373 313.544 378.387 313.827 378.636 314.011L385.968 318.562C386.125 318.645 386.298 318.688 386.474 318.688C386.649 318.688 386.822 318.645 386.98 318.562L402.668 308.937C402.944 308.767 402.931 308.485 402.668 308.301L395.31 303.708ZM374.826 316.427C374.669 316.341 374.496 316.295 374.32 316.295C374.144 316.295 373.97 316.341 373.814 316.427L367.481 320.356C367.205 320.526 367.218 320.809 367.481 320.992L374.813 325.543C374.97 325.627 375.143 325.67 375.319 325.67C375.494 325.67 375.667 325.627 375.824 325.543L382.171 321.614C382.434 321.445 382.42 321.162 382.171 320.978L374.826 316.427ZM249.331 391.12L255.664 387.177C255.94 387.007 255.914 386.725 255.664 386.555L248.346 381.99C248.188 381.907 248.015 381.863 247.84 381.863C247.664 381.863 247.491 381.907 247.334 381.99L240.988 385.919C240.725 386.089 240.738 386.371 240.988 386.555L248.319 391.106C248.476 391.192 248.648 391.237 248.824 391.24C248.999 391.242 249.173 391.201 249.331 391.12V391.12ZM356.299 327.932C356.142 327.848 355.969 327.805 355.793 327.805C355.618 327.805 355.445 327.848 355.288 327.932L348.941 331.861C348.678 332.03 348.692 332.313 348.941 332.497L356.273 337.047C356.429 337.134 356.603 337.179 356.779 337.179C356.955 337.179 357.128 337.134 357.285 337.047L363.618 333.118C363.894 332.949 363.881 332.666 363.618 332.482L356.299 327.932ZM404.573 297.956C404.416 297.872 404.243 297.829 404.068 297.829C403.892 297.829 403.719 297.872 403.562 297.956L397.229 301.871C396.953 302.04 396.966 302.323 397.229 302.492L404.56 307.057C404.718 307.141 404.891 307.184 405.066 307.184C405.242 307.184 405.415 307.141 405.572 307.057L411.918 303.128C412.181 302.959 412.168 302.676 411.918 302.492L404.573 297.956ZM421.169 296.754L403.365 285.702C403.208 285.616 403.035 285.57 402.859 285.57C402.683 285.57 402.509 285.616 402.353 285.702L396.02 289.646C395.744 289.815 395.757 290.098 396.02 290.267L413.824 301.319C413.98 301.406 414.153 301.451 414.329 301.451C414.505 301.451 414.679 301.406 414.835 301.319L421.182 297.376C421.471 297.221 421.458 296.938 421.169 296.754ZM321.677 349.442C321.52 349.355 321.347 349.31 321.171 349.31C320.995 349.31 320.822 349.355 320.665 349.442L312.86 354.29C312.598 354.459 312.611 354.742 312.86 354.911L320.192 359.462C320.349 359.549 320.522 359.594 320.698 359.594C320.874 359.594 321.047 359.549 321.204 359.462L329.009 354.615C329.271 354.445 329.258 354.162 329.009 353.993L321.677 349.442ZM345.078 334.899C344.922 334.812 344.748 334.767 344.572 334.767C344.396 334.767 344.223 334.812 344.066 334.899L334.317 340.948C334.054 341.118 334.067 341.4 334.317 341.57L341.649 346.135C341.806 346.218 341.979 346.262 342.155 346.262C342.33 346.262 342.503 346.218 342.661 346.135L352.41 340.086C352.673 339.916 352.66 339.634 352.41 339.45L345.078 334.899ZM300.22 362.755C300.063 362.672 299.89 362.628 299.714 362.628C299.539 362.628 299.366 362.672 299.208 362.755L247.032 395.148C246.769 395.317 246.782 395.6 247.032 395.784L254.364 400.335C254.521 400.418 254.694 400.462 254.869 400.462C255.045 400.462 255.218 400.418 255.375 400.335L307.552 367.928C307.815 367.758 307.802 367.476 307.552 367.292L300.22 362.755ZM245.113 396.985C244.957 396.898 244.784 396.853 244.608 396.853C244.432 396.853 244.258 396.898 244.102 396.985L236.31 401.833C236.034 402.002 236.047 402.285 236.31 402.455L243.642 407.005C243.798 407.092 243.972 407.137 244.148 407.137C244.324 407.137 244.497 407.092 244.654 407.005L252.498 402.214C252.761 402.045 252.747 401.762 252.498 401.592L245.113 396.985ZM310.942 356.099C310.785 356.015 310.612 355.972 310.436 355.972C310.261 355.972 310.088 356.015 309.93 356.099L302.139 360.946C301.863 361.116 301.876 361.398 302.139 361.582L309.47 366.133C309.628 366.216 309.801 366.26 309.976 366.26C310.152 366.26 310.325 366.216 310.482 366.133L318.287 361.285C318.563 361.13 318.537 360.847 318.287 360.663L310.942 356.099ZM234.392 403.628C234.234 403.544 234.061 403.501 233.886 403.501C233.71 403.501 233.537 403.544 233.38 403.628L225.575 408.475C225.312 408.645 225.326 408.927 225.575 409.111L232.907 413.662C233.064 413.745 233.237 413.789 233.413 413.789C233.588 413.789 233.761 413.745 233.919 413.662L241.71 408.828C241.986 408.659 241.973 408.376 241.71 408.192L234.392 403.628ZM332.399 342.757C332.241 342.674 332.068 342.63 331.893 342.63C331.717 342.63 331.544 342.674 331.387 342.757L323.595 347.591C323.319 347.76 323.332 348.043 323.595 348.226L330.927 352.777C331.084 352.861 331.257 352.904 331.433 352.904C331.608 352.904 331.781 352.861 331.939 352.777L339.744 347.93C340.019 347.76 339.993 347.477 339.744 347.294L332.399 342.757ZM365.563 322.165C365.406 322.079 365.233 322.033 365.057 322.033C364.881 322.033 364.707 322.079 364.551 322.165L358.218 326.094C357.942 326.264 357.955 326.547 358.218 326.73L365.549 331.281C365.707 331.365 365.88 331.408 366.055 331.408C366.231 331.408 366.404 331.365 366.561 331.281L372.907 327.352C373.17 327.183 373.157 326.9 372.907 326.716L365.563 322.165ZM385.863 306.308L392.196 302.379C392.472 302.21 392.459 301.927 392.196 301.743L384.864 297.193C384.707 297.109 384.534 297.066 384.358 297.066C384.183 297.066 384.01 297.109 383.853 297.193L377.506 301.136C377.243 301.305 377.257 301.588 377.506 301.758L384.838 306.322C384.997 306.408 385.173 306.453 385.35 306.453C385.528 306.453 385.704 306.408 385.863 306.322V306.308ZM344.474 306.11L350.82 302.167C351.083 301.998 351.07 301.715 350.82 301.545L343.488 296.995C343.332 296.908 343.158 296.863 342.982 296.863C342.806 296.863 342.633 296.908 342.477 296.995L336.143 300.938C335.867 301.107 335.894 301.376 336.143 301.56L343.462 306.11C343.618 306.197 343.792 306.242 343.968 306.242C344.144 306.242 344.317 306.197 344.474 306.11ZM323.451 345.16L341.977 333.655C342.24 333.486 342.227 333.203 341.977 333.02L334.645 328.469C334.488 328.385 334.315 328.342 334.14 328.342C333.964 328.342 333.791 328.385 333.634 328.469L315.107 339.987C314.844 340.142 314.858 340.425 315.107 340.609L322.439 345.16C322.601 345.236 322.777 345.269 322.953 345.257C323.129 345.244 323.3 345.187 323.451 345.089V345.16ZM375.588 312.131C375.745 312.215 375.918 312.258 376.094 312.258C376.269 312.258 376.442 312.215 376.6 312.131L382.933 308.202C383.209 308.033 383.196 307.75 382.933 307.566L375.601 303.015C375.445 302.929 375.271 302.883 375.095 302.883C374.919 302.883 374.746 302.929 374.589 303.015L368.243 306.944C367.98 307.114 367.993 307.397 368.243 307.58L375.588 312.131ZM366.128 305.644L372.461 301.715C372.737 301.546 372.723 301.263 372.461 301.079L365.129 296.528C364.972 296.445 364.798 296.401 364.623 296.401C364.448 296.401 364.275 296.445 364.117 296.528L357.771 300.471C357.508 300.641 357.521 300.924 357.771 301.093L365.103 305.658C365.268 305.731 365.446 305.761 365.624 305.747C365.802 305.732 365.975 305.673 366.128 305.573V305.644ZM314.187 350.869L320.521 346.926C320.797 346.757 320.77 346.488 320.521 346.304L313.189 341.754C313.032 341.667 312.859 341.622 312.683 341.622C312.507 341.622 312.334 341.667 312.177 341.754L305.804 345.683C305.529 345.852 305.555 346.121 305.804 346.304L313.136 350.855C313.307 350.96 313.5 351.014 313.696 351.011C313.893 351.009 314.085 350.95 314.253 350.841L314.187 350.869ZM355.104 324.808C355.261 324.892 355.434 324.935 355.609 324.935C355.785 324.935 355.958 324.892 356.115 324.808L362.462 320.879C362.724 320.71 362.711 320.427 362.462 320.243L355.13 315.693C354.972 315.609 354.799 315.566 354.624 315.566C354.449 315.566 354.275 315.609 354.118 315.693L347.785 319.636C347.509 319.805 347.522 320.088 347.785 320.257L355.104 324.808ZM267.858 379.602L274.191 375.673C274.467 375.503 274.454 375.22 274.191 375.037L266.859 370.486C266.702 370.402 266.529 370.359 266.353 370.359C266.178 370.359 266.005 370.402 265.847 370.486L259.501 374.415C259.238 374.584 259.251 374.867 259.501 375.051L266.833 379.602C266.992 379.687 267.167 379.732 267.345 379.732C267.523 379.732 267.699 379.687 267.858 379.602V379.602ZM277.121 373.849L283.467 369.921C283.73 369.751 283.717 369.468 283.467 369.285L276.149 364.734C275.992 364.647 275.819 364.602 275.643 364.602C275.467 364.602 275.293 364.647 275.137 364.734L268.791 368.663C268.528 368.832 268.541 369.115 268.791 369.299L276.122 373.849C276.278 373.931 276.449 373.973 276.622 373.973C276.795 373.973 276.966 373.931 277.121 373.849ZM258.595 385.354L264.928 381.425C265.204 381.255 265.191 380.972 264.928 380.789L257.609 376.238C257.452 376.154 257.279 376.111 257.103 376.111C256.928 376.111 256.755 376.154 256.597 376.238L250.251 380.167C249.988 380.336 250.001 380.619 250.251 380.803L257.583 385.354C257.739 385.44 257.913 385.486 258.089 385.486C258.265 385.486 258.438 385.44 258.595 385.354V385.354ZM295.648 362.345L301.994 358.416C302.257 358.247 302.244 357.964 301.994 357.78L294.662 353.23C294.505 353.146 294.332 353.103 294.156 353.103C293.981 353.103 293.808 353.146 293.65 353.23L287.317 357.173C287.041 357.342 287.054 357.625 287.317 357.795L294.649 362.345C294.804 362.43 294.975 362.474 295.148 362.474C295.322 362.474 295.493 362.43 295.648 362.345V362.345ZM286.45 368.097L292.796 364.168C293.059 363.999 293.046 363.716 292.796 363.532L285.346 358.982C285.19 358.895 285.017 358.85 284.841 358.85C284.665 358.85 284.491 358.895 284.335 358.982L278.001 362.911C277.726 363.08 277.739 363.363 278.001 363.532L285.333 368.097C285.496 368.188 285.676 368.235 285.859 368.235C286.042 368.235 286.222 368.188 286.384 368.097H286.45ZM304.977 356.593L311.323 352.65C311.586 352.495 311.573 352.212 311.323 352.028L303.991 347.477C303.835 347.391 303.661 347.345 303.485 347.345C303.309 347.345 303.136 347.391 302.979 347.477L296.541 351.336C296.265 351.505 296.291 351.788 296.541 351.958L303.86 356.508C304.015 356.616 304.192 356.68 304.375 356.695C304.559 356.709 304.743 356.674 304.911 356.593H304.977ZM347.364 271.471C347.521 271.557 347.694 271.603 347.87 271.603C348.046 271.603 348.22 271.557 348.376 271.471L354.722 267.528C354.985 267.372 354.972 267.089 354.722 266.906L352.778 265.69C352.621 265.607 352.447 265.563 352.272 265.563C352.097 265.563 351.923 265.607 351.766 265.69L345.42 269.619C345.157 269.789 345.17 270.071 345.42 270.255L347.364 271.471ZM301.784 303.128C301.94 303.215 302.114 303.26 302.29 303.26C302.466 303.26 302.639 303.215 302.796 303.128L309.129 299.199C309.405 299.03 309.392 298.747 309.129 298.563L301.797 294.013C301.64 293.929 301.467 293.886 301.291 293.886C301.116 293.886 300.943 293.929 300.785 294.013L294.439 297.942C294.176 298.111 294.189 298.394 294.439 298.578L301.784 303.128ZM320.31 291.624C320.468 291.708 320.641 291.751 320.816 291.751C320.992 291.751 321.165 291.708 321.322 291.624L327.668 287.695C327.931 287.526 327.918 287.243 327.668 287.059L320.337 282.508C320.18 282.422 320.007 282.376 319.831 282.376C319.655 282.376 319.481 282.422 319.325 282.508L312.939 286.437C312.663 286.607 312.676 286.89 312.939 287.073L320.31 291.624ZM290.471 310.152C290.628 310.236 290.801 310.279 290.977 310.279C291.152 310.279 291.325 310.236 291.482 310.152L297.816 306.209C298.092 306.04 298.078 305.757 297.816 305.588L290.484 301.023C290.327 300.939 290.153 300.896 289.978 300.896C289.803 300.896 289.63 300.939 289.472 301.023L283.126 304.952C282.863 305.121 282.876 305.404 283.126 305.588L290.471 310.152ZM311.047 297.433C311.204 297.516 311.378 297.56 311.553 297.56C311.728 297.56 311.901 297.516 312.059 297.433L318.405 293.504C318.668 293.334 318.655 293.052 318.405 292.868L311.073 288.317C310.916 288.234 310.743 288.19 310.567 288.19C310.392 288.19 310.219 288.234 310.062 288.317L303.728 292.246C303.452 292.416 303.466 292.698 303.728 292.882L311.047 297.433ZM271.878 321.657C272.035 321.743 272.208 321.789 272.384 321.789C272.56 321.789 272.734 321.743 272.89 321.657L279.223 317.714C279.499 317.544 279.473 317.261 279.223 317.092L271.905 312.541C271.748 312.454 271.575 312.409 271.399 312.409C271.223 312.409 271.049 312.454 270.893 312.541L264.547 316.484C264.284 316.639 264.297 316.922 264.547 317.106L271.878 321.657ZM281.142 315.905C281.299 315.988 281.472 316.031 281.648 316.031C281.823 316.031 281.996 315.988 282.154 315.905L288.487 311.961C288.763 311.792 288.749 311.509 288.487 311.34L281.168 306.789C281.012 306.702 280.838 306.657 280.662 306.657C280.486 306.657 280.313 306.702 280.156 306.789L273.81 310.732C273.547 310.887 273.56 311.17 273.81 311.354L281.142 315.905ZM328.772 282.989C328.929 283.073 329.103 283.116 329.278 283.116C329.453 283.116 329.627 283.073 329.784 282.989L336.13 279.06C336.393 278.89 336.38 278.608 336.13 278.424L334.172 277.209C334.015 277.125 333.842 277.082 333.667 277.082C333.491 277.082 333.318 277.125 333.161 277.209L326.828 281.138C326.552 281.307 326.578 281.59 326.828 281.774L328.772 282.989ZM356.575 265.719C356.729 265.805 356.901 265.851 357.074 265.851C357.248 265.851 357.42 265.805 357.574 265.719L363.92 261.775C364.183 261.606 364.17 261.337 363.92 261.154L361.975 259.938C361.819 259.851 361.646 259.806 361.47 259.806C361.294 259.806 361.12 259.851 360.964 259.938L354.617 263.867C354.355 264.037 354.368 264.319 354.617 264.503L356.575 265.719ZM371.961 275.287C372.119 275.37 372.292 275.413 372.467 275.413C372.643 275.413 372.816 275.37 372.973 275.287L379.319 271.343C379.582 271.174 379.569 270.891 379.319 270.722L371.988 266.157C371.83 266.073 371.657 266.03 371.482 266.03C371.306 266.03 371.133 266.073 370.976 266.157L364.643 270.086C364.367 270.255 364.393 270.538 364.643 270.722L371.961 275.287ZM395.126 300.57L401.473 296.627C401.735 296.472 401.722 296.189 401.473 296.005L394.141 291.455C393.983 291.371 393.81 291.328 393.635 291.328C393.459 291.328 393.286 291.371 393.129 291.455L386.796 295.398C386.52 295.567 386.533 295.85 386.796 296.02L394.128 300.57C394.282 300.655 394.453 300.699 394.627 300.699C394.8 300.699 394.971 300.655 395.126 300.57V300.57ZM338.035 277.237C338.193 277.32 338.366 277.364 338.541 277.364C338.717 277.364 338.89 277.32 339.047 277.237L345.394 273.308C345.656 273.138 345.643 272.856 345.394 272.672L343.436 271.457C343.278 271.373 343.105 271.33 342.93 271.33C342.754 271.33 342.581 271.373 342.424 271.457L336.091 275.385C335.828 275.555 335.841 275.838 336.091 276.021L338.035 277.237ZM262.615 327.409C262.772 327.496 262.945 327.541 263.121 327.541C263.297 327.541 263.47 327.496 263.627 327.409L269.96 323.466C270.223 323.296 270.21 323.028 269.96 322.844L262.628 318.293C262.472 318.206 262.298 318.161 262.122 318.161C261.946 318.161 261.773 318.206 261.617 318.293L255.283 322.236C255.021 322.406 255.034 322.674 255.283 322.858L262.615 327.409Z" fill="#455A64"/>
<path d="M300.286 389.353L369.662 346.262L412.365 372.776L342.976 415.867L300.286 389.353Z" fill="#263238"/>
<path d="M146.068 172.216L352.83 43.8181C356.864 41.3024 360.175 43.3658 360.175 48.383V220.621C360.109 221.895 359.765 223.134 359.172 224.239C358.579 225.344 357.752 226.283 356.759 226.981L144.755 358.643C142.876 359.802 141.338 358.855 141.338 356.523V181.02C141.433 179.257 141.91 177.543 142.731 176.014C143.553 174.485 144.696 173.184 146.068 172.216Z" fill="#F5F5F5"/>
<path d="M360.241 52.5097V48.3829C360.241 43.3657 356.93 41.3165 352.896 43.818L146.069 172.216C144.696 173.184 143.553 174.485 142.731 176.014C141.91 177.543 141.433 179.257 141.338 181.02V188.412L360.241 52.5097Z" fill="#F03E3D"/>
<path d="M329.39 61.9084C328.652 62.4251 328.037 63.1219 327.597 63.9421C327.156 64.7623 326.901 65.6828 326.854 66.6288C326.854 68.3671 327.984 69.0737 329.39 68.1975C330.125 67.6823 330.737 66.9874 331.175 66.1695C331.614 65.3517 331.866 64.434 331.912 63.4912C331.912 61.7529 330.782 61.0462 329.39 61.9084Z" fill="white"/>
<path d="M339.428 55.675C338.693 56.1933 338.081 56.8908 337.642 57.7109C337.204 58.531 336.952 59.4507 336.906 60.3954C336.906 62.1337 338.036 62.8263 339.428 61.9641C340.166 61.4474 340.781 60.7506 341.221 59.9304C341.662 59.1102 341.917 58.1897 341.964 57.2438C341.964 55.5054 340.834 54.7988 339.428 55.675Z" fill="white"/>
<path d="M349.48 49.4286C348.744 49.9478 348.131 50.6452 347.691 51.4649C347.25 52.2846 346.995 53.2039 346.944 54.149C346.944 55.8874 348.087 56.594 349.48 55.7178C350.217 55.2033 350.831 54.5089 351.271 53.6911C351.712 52.8733 351.967 51.9553 352.016 51.0115C352.016 49.2732 350.873 48.5665 349.48 49.4286Z" fill="white"/>
<path d="M192.394 272.738L184.349 267.742L164.647 304.449L172.692 309.445L192.394 272.738Z" fill="#37474F"/>
<path d="M192.41 272.727L188.393 270.233L168.691 306.939L172.708 309.434L192.41 272.727Z" fill="#263238"/>
<path d="M143.047 376.125C139.381 382.98 122.024 372.097 125.676 365.342L170.942 289.406C171.064 289.2 171.255 289.053 171.475 288.995C171.695 288.937 171.928 288.973 172.124 289.095L181.217 294.748C181.412 294.867 181.558 295.063 181.621 295.295C181.685 295.527 181.662 295.777 181.558 295.992L143.047 376.125Z" fill="#11B5E4"/>
<path opacity="0.1" d="M143.046 376.125L181.545 295.992C181.649 295.777 181.672 295.528 181.608 295.295C181.544 295.063 181.399 294.867 181.203 294.748L177.064 292.176L132.929 376.563C136.95 378.697 141.391 379.22 143.046 376.125Z" fill="black"/>
<path d="M276.149 197.358C276.149 196.778 276.149 196.213 276.07 195.648C275.991 195.082 276.07 194.531 275.952 193.98C275.833 193.429 275.952 193.245 275.847 192.878C275.755 191.917 275.623 190.97 275.479 190.051C275.413 189.641 275.347 189.217 275.268 188.807C275.19 188.398 275.124 188.03 275.045 187.649C274.822 186.603 274.585 185.585 274.309 184.61C274.165 184.144 274.033 183.677 273.889 183.197C273.861 183.128 273.839 183.057 273.823 182.985C273.665 182.532 273.521 182.094 273.363 181.67C273.206 181.246 272.995 180.681 272.785 180.257C272.575 179.833 272.496 179.565 272.325 179.225C272.23 178.971 272.116 178.725 271.984 178.49C271.852 178.194 271.708 177.897 271.55 177.614C271.392 177.332 271.484 177.473 271.445 177.416C271.405 177.36 271.169 176.908 271.024 176.653C270.88 176.399 270.827 176.328 270.735 176.173C270.062 175.032 269.306 173.95 268.475 172.936L268.055 172.427L267.7 172.032C267.556 171.862 267.398 171.707 267.24 171.537C266.828 171.071 266.389 170.632 265.926 170.223C265.703 170.011 265.466 169.813 265.23 169.629L264.507 169.064C264.132 168.768 263.741 168.494 263.338 168.244L263.022 168.032H262.957L244.338 156.471L244.233 156.401C240.661 154.258 236.629 153.161 232.539 153.221C226.442 153.221 219.557 155.369 212.265 159.892C187.221 175.438 166.908 213.286 166.908 244.406C166.908 259.953 171.953 270.835 180.113 275.951H180.192L198.823 287.498H198.902L199.125 287.625C199.475 287.847 199.834 288.05 200.203 288.233C200.65 288.473 201.109 288.685 201.517 288.883C201.924 289.081 202.345 289.236 202.765 289.377L203.435 289.589C203.67 289.686 203.912 289.762 204.158 289.815C204.4 289.895 204.645 289.961 204.894 290.013C205.07 290.069 205.25 290.112 205.432 290.14C205.748 290.211 206.089 290.282 206.418 290.324C206.492 290.338 206.567 290.338 206.641 290.324C207.035 290.4 207.43 290.456 207.824 290.494C214.577 291.257 222.435 289.208 230.844 283.993C255.901 268.446 276.214 230.584 276.214 199.478C276.149 198.828 276.149 198.093 276.149 197.358ZM245.757 175.353C246.741 179.22 247.223 183.215 247.189 187.225C247.189 214.671 228.518 249.409 206.457 263.175C203.232 265.237 199.75 266.793 196.117 267.796C195.138 263.923 194.656 259.924 194.684 255.911C194.684 228.464 213.355 193.726 235.417 179.96C238.629 177.906 242.098 176.355 245.718 175.353H245.757Z" fill="#11B5E4"/>
<path opacity="0.1" d="M198.061 287.102L179.968 275.881C171.808 270.751 166.763 259.84 166.763 244.35C166.763 230.472 170.81 215.265 177.498 201.302L196.13 212.834C189.428 226.797 185.395 242.004 185.395 255.883C185.395 271.09 190.204 281.845 198.061 287.102Z" fill="black"/>
<path opacity="0.4" d="M276.149 197.358C276.149 196.779 276.149 196.213 276.07 195.648C275.991 195.083 276.07 194.532 275.952 193.98C275.834 193.429 275.952 193.245 275.847 192.878C275.755 191.917 275.623 190.97 275.479 190.051C275.413 189.642 275.347 189.218 275.269 188.808C275.19 188.398 275.124 188.03 275.045 187.649C274.822 186.603 274.585 185.585 274.309 184.61C274.165 184.144 274.033 183.677 273.889 183.197C273.861 183.129 273.839 183.058 273.823 182.985C273.666 182.533 273.521 182.095 273.363 181.671C273.206 181.247 272.995 180.681 272.785 180.257C272.575 179.833 272.496 179.565 272.325 179.226C272.23 178.971 272.116 178.725 271.984 178.491C271.852 178.194 271.708 177.897 271.55 177.614C271.392 177.332 271.484 177.473 271.445 177.417C271.406 177.36 271.169 176.908 271.024 176.653C270.88 176.399 270.827 176.328 270.735 176.173C270.062 175.032 269.306 173.95 268.475 172.936L268.055 172.428L267.7 172.032C267.556 171.862 267.398 171.707 267.24 171.537C266.828 171.071 266.389 170.632 265.926 170.223C265.703 170.011 265.467 169.813 265.23 169.629L264.507 169.064C264.132 168.768 263.741 168.494 263.338 168.244C255.1 162.86 243.629 163.496 230.87 171.396C205.814 186.942 185.5 224.79 185.5 255.911C185.5 271.669 190.756 282.679 199.099 287.682C199.449 287.904 199.808 288.106 200.177 288.289C200.623 288.53 201.083 288.742 201.491 288.939C201.898 289.137 202.318 289.293 202.739 289.434L203.409 289.646C203.644 289.743 203.885 289.818 204.132 289.872C204.374 289.951 204.619 290.017 204.868 290.07C205.044 290.126 205.224 290.168 205.406 290.197C205.722 290.268 206.063 290.339 206.392 290.381C206.466 290.394 206.541 290.394 206.615 290.381C207.009 290.456 207.403 290.513 207.798 290.551C214.551 291.314 222.409 289.264 230.818 284.049C255.875 268.503 276.188 230.641 276.188 199.535C276.149 198.828 276.149 198.093 276.149 197.358ZM226.219 275.527C220.595 279.018 215.182 280.855 210.557 280.855C201.872 280.855 197.877 274.481 196.104 267.797C195.125 263.923 194.643 259.924 194.671 255.911C194.671 228.465 213.342 193.726 235.404 179.96C238.629 177.902 242.111 176.351 245.744 175.353C247.464 174.895 249.228 174.653 251 174.632C265.361 174.632 266.899 192.072 266.899 199.577C266.951 226.967 248.28 261.804 226.219 275.527Z" fill="white"/>
<path opacity="0.1" d="M266.951 199.577C266.951 227.023 248.293 261.761 226.219 275.527C220.595 279.018 215.182 280.855 210.557 280.855C201.872 280.855 197.877 274.481 196.103 267.796C199.737 266.793 203.219 265.237 206.444 263.175C228.545 249.452 247.176 214.671 247.176 187.225C247.21 183.215 246.728 179.22 245.744 175.353C247.464 174.894 249.228 174.653 251 174.632C265.401 174.674 266.951 192.072 266.951 199.577Z" fill="black"/>
<path opacity="0.7" d="M259.067 194.786C259.067 222.232 240.409 256.971 218.335 270.736C212.712 274.227 207.298 276.064 202.673 276.064C201.753 276.067 200.834 275.986 199.927 275.824C198.151 273.464 196.858 270.729 196.13 267.796C195.151 263.923 194.669 259.924 194.697 255.911C194.697 228.464 213.369 193.726 235.43 179.96C238.655 177.902 242.137 176.351 245.77 175.353C247.49 174.894 249.254 174.653 251.026 174.632C251.951 174.63 252.873 174.71 253.785 174.872C258.332 180.624 259.067 189.853 259.067 194.786Z" fill="white"/>
<path d="M290.825 166.195V197.486C290.825 199.832 292.363 200.779 294.242 199.606L484.895 81.2141C485.888 80.5162 486.714 79.5769 487.308 78.4722C487.901 77.3675 488.245 76.1282 488.311 74.8543V43.5216C488.311 41.1756 486.774 40.2287 484.895 41.4017L294.242 159.793C293.244 160.496 292.415 161.442 291.821 162.555C291.228 163.667 290.887 164.914 290.825 166.195Z" fill="#E6E6E6"/>
<path d="M294.242 159.793L328.194 138.72V178.49L294.242 199.563C292.363 200.736 290.825 199.789 290.825 197.443V166.195C290.887 164.914 291.228 163.667 291.821 162.554C292.415 161.442 293.244 160.496 294.242 159.793Z" fill="#BA68C8"/>
<path d="M316.96 156.076C314.818 154.748 312.111 154.96 309.339 156.684C306.704 158.5 304.512 160.968 302.946 163.881C301.381 166.795 300.486 170.07 300.339 173.432C300.246 175.61 300.885 177.752 302.139 179.466L298.486 186.194C298.248 186.675 298.19 187.236 298.325 187.762C298.459 188.287 298.775 188.737 299.208 189.02C299.51 189.202 299.849 189.299 300.194 189.303C300.54 189.303 300.88 189.205 301.18 189.019C301.48 188.833 301.729 188.565 301.902 188.243L305.515 181.516C305.906 181.594 306.301 181.637 306.698 181.643C308.311 181.611 309.888 181.124 311.271 180.23C313.9 178.41 316.088 175.941 317.651 173.027C319.215 170.114 320.108 166.842 320.258 163.482C320.297 160.048 319.115 157.419 316.96 156.076ZM309.339 176.569C308.877 177.103 308.261 177.453 307.591 177.562C306.92 177.67 306.236 177.531 305.648 177.167C305.061 176.802 304.606 176.235 304.357 175.556C304.109 174.878 304.082 174.129 304.28 173.432C304.434 170.817 305.148 168.275 306.368 166.007C307.587 163.739 309.279 161.806 311.31 160.359C312.098 159.819 313.004 159.512 313.938 159.468C314.323 159.453 314.704 159.55 315.042 159.751C315.536 160.206 315.916 160.787 316.145 161.442C316.375 162.097 316.447 162.803 316.355 163.496C316.204 166.11 315.491 168.65 314.274 170.919C313.057 173.187 311.368 175.121 309.339 176.569Z" fill="white"/>
</svg>
